0
SECTION
2
HEADER
9
$INSUNITS
70
4
0
ENDSEC
0
SECTION
2
TABLES
0
TABLE
2
LTYPE
0
LTYPE
72
65
70
64
2
CONTINUOUS
3
______
73
0
40
0
0
ENDTAB
0
TABLE
2
LAYER
0
ENDTAB
0
ENDSEC
0
SECTION
2
ENTITIES
0
LINE
8
0
10
82.6015787
20
-44.1312732
11
131.9438188
21
-49.8701388
0
LINE
8
0
10
80.4386698
20
-45.6002434
11
62.6170175
21
-112.1115552
0
LINE
8
0
10
63.4177824
20
-114.2786303
11
91.7277136
21
-133.691914
0
LINE
8
0
10
92.2870412
20
-133.959008
11
140.1749925
21
-148.2454319
0
LINE
8
0
10
140.8273005
20
-148.5802995
11
169.7646248
21
-170.975221
0
LINE
8
0
10
170.9886919
20
-171.3935575
11
220.2041005
21
-171.3935575
0
LINE
8
0
10
221.673153
20
-170.750718
11
232.3429432
21
-159.2012499
0
LINE
8
0
10
233.1107813
20
-158.6853652
11
299.1694384
21
-133.9549007
0
LINE
8
0
10
299.5993108
20
-133.7312926
11
327.9666668
21
-114.2786303
0
LINE
8
0
10
310.9457794
20
-45.6002434
11
328.7674317
21
-112.1115552
0
LINE
8
0
10
259.4406304
20
-49.8701388
11
308.7828705
21
-44.1312732
0
LINE
8
0
10
259.1540495
20
-49.9248954
11
239.1521831
21
-55.2843793
0
LINE
8
0
10
238.8766183
20
-55.3802492
11
207.8431556
21
-68.7876959
0
LINE
8
0
10
207.0499528
20
-68.951714
11
184.3344964
21
-68.951714
0
LINE
8
0
10
183.5412936
20
-68.7876959
11
152.5078309
21
-55.3802492
0
LINE
8
0
10
152.2322661
20
-55.2843793
11
132.2303997
21
-49.9248954
0
ARC
8
0
10
82.3705215
20
-46.1178815
40
2
50
83.3658855
51
165.0000021
0
ARC
8
0
10
64.5488693
20
-112.6291932
40
2
50
165.0000021
51
235.5599644
0
ARC
8
0
10
92.8588004
20
-132.0424769
40
2
50
235.5599644
51
253.3885656
0
ARC
8
0
10
139.6032333
20
-150.161963
40
2
50
52.2633102
51
73.3885656
0
ARC
8
0
10
170.9886919
20
-169.3935575
40
2
50
232.2633102
51
270
0
ARC
8
0
10
220.2041005
20
-169.3935575
40
2
50
270
51
317.2672008
0
ARC
8
0
10
233.8119957
20
-160.5584104
40
2
50
110.5244588
51
137.2672008
0
ARC
8
0
10
298.468224
20
-132.0818555
40
2
50
290.5244588
51
304.4400356
0
ARC
8
0
10
326.8355799
20
-112.6291932
40
2
50
304.4400356
51
14.9999979
0
ARC
8
0
10
309.0139277
20
-46.1178815
40
2
50
14.9999979
51
96.6341145
0
ARC
8
0
10
259.6716876
20
-51.8567471
40
2
50
96.6341145
51
104.9999979
0
ARC
8
0
10
239.6698212
20
-57.2162311
40
2
50
104.9999979
51
113.3658872
0
ARC
8
0
10
207.0499528
20
-66.951714
40
2
50
270
51
293.3658872
0
ARC
8
0
10
184.3344964
20
-66.951714
40
2
50
246.6341128
51
270
0
ARC
8
0
10
151.714628
20
-57.2162311
40
2
50
66.6341128
51
75.0000021
0
ARC
8
0
10
131.7127616
20
-51.8567471
40
2
50
75.0000021
51
83.3658855
0
ENDSEC
0
EOF