0
SECTION
2
HEADER
9
$INSUNITS
70
4
0
ENDSEC
0
SECTION
2
TABLES
0
TABLE
2
LTYPE
0
LTYPE
72
65
70
64
2
CONTINUOUS
3
______
73
0
40
0
0
ENDTAB
0
TABLE
2
LAYER
0
ENDTAB
0
ENDSEC
0
SECTION
2
ENTITIES
0
LINE
8
0
10
64.7615077
20
-112.0288004
11
81.0856542
21
-116.4028423
0
LINE
8
0
10
81.0856542
20
-116.4028423
11
85.4596961
21
-100.0786958
0
LINE
8
0
10
85.4596961
20
-100.0786958
11
69.1355496
21
-95.7046539
0
LINE
8
0
10
69.1355496
20
-95.7046539
11
64.7615077
21
-112.0288004
0
LINE
8
0
10
69.1614315
20
-95.6080613
11
85.485578
21
-99.9821032
0
LINE
8
0
10
85.485578
20
-99.9821032
11
89.8596199
21
-83.6579567
0
LINE
8
0
10
89.8596199
20
-83.6579567
11
73.5354734
21
-79.2839148
0
LINE
8
0
10
73.5354734
20
-79.2839148
11
69.1614315
21
-95.6080613
0
LINE
8
0
10
73.5613552
20
-79.1873223
11
89.8855017
21
-83.5613642
0
LINE
8
0
10
89.8855017
20
-83.5613642
11
94.2595436
21
-67.2372177
0
LINE
8
0
10
94.2595436
20
-67.2372177
11
77.9353971
21
-62.8631758
0
LINE
8
0
10
77.9353971
20
-62.8631758
11
73.5613552
21
-79.1873223
0
LINE
8
0
10
77.961279
20
-62.7665833
11
94.2854255
21
-67.1406252
0
LINE
8
0
10
94.2854255
20
-67.1406252
11
98.6594674
21
-50.8164787
0
LINE
8
0
10
98.6594674
20
-50.8164787
11
82.3353209
21
-46.4424368
0
LINE
8
0
10
82.3353209
20
-46.4424368
11
77.961279
21
-62.7665833
0
LINE
8
0
10
81.1822467
20
-116.4287242
11
97.5063932
21
-120.8027661
0
LINE
8
0
10
97.5063932
20
-120.8027661
11
101.8804351
21
-104.4786196
0
LINE
8
0
10
101.8804351
20
-104.4786196
11
85.5562886
21
-100.1045777
0
LINE
8
0
10
85.5562886
20
-100.1045777
11
81.1822467
21
-116.4287242
0
LINE
8
0
10
85.5821705
20
-100.0079851
11
101.906317
21
-104.382027
0
LINE
8
0
10
101.906317
20
-104.382027
11
106.2803589
21
-88.0578805
0
LINE
8
0
10
106.2803589
20
-88.0578805
11
89.9562124
21
-83.6838386
0
LINE
8
0
10
89.9562124
20
-83.6838386
11
85.5821705
21
-100.0079851
0
LINE
8
0
10
89.9820943
20
-83.5872461
11
106.3062408
21
-87.961288
0
LINE
8
0
10
106.3062408
20
-87.961288
11
110.6802827
21
-71.6371415
0
LINE
8
0
10
110.6802827
20
-71.6371415
11
94.3561362
21
-67.2630996
0
LINE
8
0
10
94.3561362
20
-67.2630996
11
89.9820943
21
-83.5872461
0
LINE
8
0
10
94.382018
20
-67.166507
11
110.7061645
21
-71.5405489
0
LINE
8
0
10
110.7061645
20
-71.5405489
11
115.0802064
21
-55.2164024
0
LINE
8
0
10
115.0802064
20
-55.2164024
11
98.7560599
21
-50.8423605
0
LINE
8
0
10
98.7560599
20
-50.8423605
11
94.382018
21
-67.166507
0
LINE
8
0
10
94.4971572
20
-132.4197578
11
110.8213037
21
-136.7937997
0
LINE
8
0
10
110.8213037
20
-136.7937997
11
115.1953456
21
-120.4696532
0
LINE
8
0
10
115.1953456
20
-120.4696532
11
98.8711991
21
-116.0956113
0
LINE
8
0
10
98.8711991
20
-116.0956113
11
94.4971572
21
-132.4197578
0
LINE
8
0
10
98.897081
20
-115.9990188
11
115.2212275
21
-120.3730607
0
LINE
8
0
10
115.2212275
20
-120.3730607
11
119.5952694
21
-104.0489142
0
LINE
8
0
10
119.5952694
20
-104.0489142
11
103.2711229
21
-99.6748723
0
LINE
8
0
10
103.2711229
20
-99.6748723
11
98.897081
21
-115.9990188
0
LINE
8
0
10
103.2970048
20
-99.5782797
11
119.6211513
21
-103.9523216
0
LINE
8
0
10
119.6211513
20
-103.9523216
11
123.9951932
21
-87.6281751
0
LINE
8
0
10
123.9951932
20
-87.6281751
11
107.6710467
21
-83.2541332
0
LINE
8
0
10
107.6710467
20
-83.2541332
11
103.2970048
21
-99.5782797
0
LINE
8
0
10
107.6969285
20
-83.1575407
11
124.021075
21
-87.5315826
0
LINE
8
0
10
124.021075
20
-87.5315826
11
128.3951169
21
-71.2074361
0
LINE
8
0
10
128.3951169
20
-71.2074361
11
112.0709704
21
-66.8333942
0
LINE
8
0
10
112.0709704
20
-66.8333942
11
107.6969285
21
-83.1575407
0
LINE
8
0
10
112.0968523
20
-66.7368017
11
128.4209988
21
-71.1108436
0
LINE
8
0
10
128.4209988
20
-71.1108436
11
132.7950407
21
-54.7866971
0
LINE
8
0
10
132.7950407
20
-54.7866971
11
116.4708942
21
-50.4126552
0
LINE
8
0
10
116.4708942
20
-50.4126552
11
112.0968523
21
-66.7368017
0
LINE
8
0
10
111.5649439
20
-134.404867
11
127.8890904
21
-138.7789089
0
LINE
8
0
10
127.8890904
20
-138.7789089
11
132.2631323
21
-122.4547624
0
LINE
8
0
10
132.2631323
20
-122.4547624
11
115.9389858
21
-118.0807205
0
LINE
8
0
10
115.9389858
20
-118.0807205
11
111.5649439
21
-134.404867
0
LINE
8
0
10
115.9648677
20
-117.984128
11
132.2890142
21
-122.3581699
0
LINE
8
0
10
132.2890142
20
-122.3581699
11
136.6630561
21
-106.0340234
0
LINE
8
0
10
136.6630561
20
-106.0340234
11
120.3389096
21
-101.6599815
0
LINE
8
0
10
120.3389096
20
-101.6599815
11
115.9648677
21
-117.984128
0
LINE
8
0
10
120.3647914
20
-101.5633889
11
136.6889379
21
-105.9374308
0
LINE
8
0
10
136.6889379
20
-105.9374308
11
141.0629798
21
-89.6132843
0
LINE
8
0
10
141.0629798
20
-89.6132843
11
124.7388333
21
-85.2392424
0
LINE
8
0
10
124.7388333
20
-85.2392424
11
120.3647914
21
-101.5633889
0
LINE
8
0
10
124.7647152
20
-85.1426499
11
141.0888617
21
-89.5166918
0
LINE
8
0
10
141.0888617
20
-89.5166918
11
145.4629036
21
-73.1925453
0
LINE
8
0
10
145.4629036
20
-73.1925453
11
129.1387571
21
-68.8185034
0
LINE
8
0
10
129.1387571
20
-68.8185034
11
124.7647152
21
-85.1426499
0
LINE
8
0
10
129.164639
20
-68.7219109
11
145.4887855
21
-73.0959528
0
LINE
8
0
10
145.4887855
20
-73.0959528
11
149.8628274
21
-56.7718063
0
LINE
8
0
10
149.8628274
20
-56.7718063
11
133.5386809
21
-52.3977644
0
LINE
8
0
10
133.5386809
20
-52.3977644
11
129.164639
21
-68.7219109
0
LINE
8
0
10
127.3386353
20
-141.2196054
11
143.6627818
21
-145.5936473
0
LINE
8
0
10
143.6627818
20
-145.5936473
11
148.0368237
21
-129.2695008
0
LINE
8
0
10
148.0368237
20
-129.2695008
11
131.7126772
21
-124.8954589
0
LINE
8
0
10
131.7126772
20
-124.8954589
11
127.3386353
21
-141.2196054
0
LINE
8
0
10
131.7385591
20
-124.7988663
11
148.0627056
21
-129.1729082
0
LINE
8
0
10
148.0627056
20
-129.1729082
11
152.4367475
21
-112.8487617
0
LINE
8
0
10
152.4367475
20
-112.8487617
11
136.112601
21
-108.4747198
0
LINE
8
0
10
136.112601
20
-108.4747198
11
131.7385591
21
-124.7988663
0
LINE
8
0
10
136.1384829
20
-108.3781273
11
152.4626294
21
-112.7521692
0
LINE
8
0
10
152.4626294
20
-112.7521692
11
156.8366713
21
-96.4280227
0
LINE
8
0
10
156.8366713
20
-96.4280227
11
140.5125248
21
-92.0539808
0
LINE
8
0
10
140.5125248
20
-92.0539808
11
136.1384829
21
-108.3781273
0
LINE
8
0
10
140.5384066
20
-91.9573882
11
156.8625531
21
-96.3314301
0
LINE
8
0
10
156.8625531
20
-96.3314301
11
161.236595
21
-80.0072836
0
LINE
8
0
10
161.236595
20
-80.0072836
11
144.9124485
21
-75.6332417
0
LINE
8
0
10
144.9124485
20
-75.6332417
11
140.5384066
21
-91.9573882
0
LINE
8
0
10
144.9383304
20
-75.5366492
11
161.2624769
21
-79.9106911
0
LINE
8
0
10
161.2624769
20
-79.9106911
11
165.6365188
21
-63.5865446
0
LINE
8
0
10
165.6365188
20
-63.5865446
11
149.3123723
21
-59.2125027
0
LINE
8
0
10
149.3123723
20
-59.2125027
11
144.9383304
21
-75.5366492
0
LINE
8
0
10
147.5122505
20
-131.6136047
11
163.836397
21
-135.9876466
0
LINE
8
0
10
163.836397
20
-135.9876466
11
168.2104389
21
-119.6635001
0
LINE
8
0
10
168.2104389
20
-119.6635001
11
151.8862924
21
-115.2894582
0
LINE
8
0
10
151.8862924
20
-115.2894582
11
147.5122505
21
-131.6136047
0
LINE
8
0
10
151.9121743
20
-115.1928656
11
168.2363208
21
-119.5669075
0
LINE
8
0
10
168.2363208
20
-119.5669075
11
172.6103627
21
-103.242761
0
LINE
8
0
10
172.6103627
20
-103.242761
11
156.2862162
21
-98.8687191
0
LINE
8
0
10
156.2862162
20
-98.8687191
11
151.9121743
21
-115.1928656
0
LINE
8
0
10
156.3120981
20
-98.7721266
11
172.6362446
21
-103.1461685
0
LINE
8
0
10
172.6362446
20
-103.1461685
11
177.0102865
21
-86.822022
0
LINE
8
0
10
177.0102865
20
-86.822022
11
160.68614
21
-82.4479801
0
LINE
8
0
10
160.68614
20
-82.4479801
11
156.3120981
21
-98.7721266
0
LINE
8
0
10
160.7120218
20
-82.3513875
11
177.0361683
21
-86.7254294
0
LINE
8
0
10
177.0361683
20
-86.7254294
11
181.4102102
21
-70.4012829
0
LINE
8
0
10
181.4102102
20
-70.4012829
11
165.0860637
21
-66.027241
0
LINE
8
0
10
165.0860637
20
-66.027241
11
160.7120218
21
-82.3513875
0
LINE
8
0
10
143.3327198
20
-147.6016958
11
157.9685492
21
-156.0516958
0
LINE
8
0
10
157.9685492
20
-156.0516958
11
166.4185492
21
-141.4158664
0
LINE
8
0
10
166.4185492
20
-141.4158664
11
151.7827198
21
-132.9658664
0
LINE
8
0
10
151.7827198
20
-132.9658664
11
143.3327198
21
-147.6016958
0
LINE
8
0
10
158.3550685
20
-156.5443151
11
170.3051731
21
-168.4944197
0
LINE
8
0
10
170.3051731
20
-168.4944197
11
182.2552777
21
-156.5443151
0
LINE
8
0
10
182.2552777
20
-156.5443151
11
170.3051731
21
-144.5942105
0
LINE
8
0
10
170.3051731
20
-144.5942105
11
158.3550685
21
-156.5443151
0
LINE
8
0
10
310.298795
20
-116.4028423
11
326.6229415
21
-112.0288004
0
LINE
8
0
10
326.6229415
20
-112.0288004
11
322.2488996
21
-95.7046539
0
LINE
8
0
10
322.2488996
20
-95.7046539
11
305.9247531
21
-100.0786958
0
LINE
8
0
10
305.9247531
20
-100.0786958
11
310.298795
21
-116.4028423
0
LINE
8
0
10
305.8988712
20
-99.9821032
11
322.2230177
21
-95.6080613
0
LINE
8
0
10
322.2230177
20
-95.6080613
11
317.8489758
21
-79.2839148
0
LINE
8
0
10
317.8489758
20
-79.2839148
11
301.5248293
21
-83.6579567
0
LINE
8
0
10
301.5248293
20
-83.6579567
11
305.8988712
21
-99.9821032
0
LINE
8
0
10
301.4989475
20
-83.5613642
11
317.823094
21
-79.1873223
0
LINE
8
0
10
317.823094
20
-79.1873223
11
313.4490521
21
-62.8631758
0
LINE
8
0
10
313.4490521
20
-62.8631758
11
297.1249056
21
-67.2372177
0
LINE
8
0
10
297.1249056
20
-67.2372177
11
301.4989475
21
-83.5613642
0
LINE
8
0
10
297.0990237
20
-67.1406252
11
313.4231702
21
-62.7665833
0
LINE
8
0
10
313.4231702
20
-62.7665833
11
309.0491283
21
-46.4424368
0
LINE
8
0
10
309.0491283
20
-46.4424368
11
292.7249818
21
-50.8164787
0
LINE
8
0
10
292.7249818
20
-50.8164787
11
297.0990237
21
-67.1406252
0
LINE
8
0
10
293.878056
20
-120.8027661
11
310.2022025
21
-116.4287242
0
LINE
8
0
10
310.2022025
20
-116.4287242
11
305.8281606
21
-100.1045777
0
LINE
8
0
10
305.8281606
20
-100.1045777
11
289.5040141
21
-104.4786196
0
LINE
8
0
10
289.5040141
20
-104.4786196
11
293.878056
21
-120.8027661
0
LINE
8
0
10
289.4781322
20
-104.382027
11
305.8022787
21
-100.0079851
0
LINE
8
0
10
305.8022787
20
-100.0079851
11
301.4282368
21
-83.6838386
0
LINE
8
0
10
301.4282368
20
-83.6838386
11
285.1040903
21
-88.0578805
0
LINE
8
0
10
285.1040903
20
-88.0578805
11
289.4781322
21
-104.382027
0
LINE
8
0
10
285.0782084
20
-87.961288
11
301.4023549
21
-83.5872461
0
LINE
8
0
10
301.4023549
20
-83.5872461
11
297.028313
21
-67.2630996
0
LINE
8
0
10
297.028313
20
-67.2630996
11
280.7041665
21
-71.6371415
0
LINE
8
0
10
280.7041665
20
-71.6371415
11
285.0782084
21
-87.961288
0
LINE
8
0
10
280.6782847
20
-71.5405489
11
297.0024312
21
-67.166507
0
LINE
8
0
10
297.0024312
20
-67.166507
11
292.6283893
21
-50.8423605
0
LINE
8
0
10
292.6283893
20
-50.8423605
11
276.3042428
21
-55.2164024
0
LINE
8
0
10
276.3042428
20
-55.2164024
11
280.6782847
21
-71.5405489
0
LINE
8
0
10
280.5631455
20
-136.7937997
11
296.887292
21
-132.4197578
0
LINE
8
0
10
296.887292
20
-132.4197578
11
292.5132501
21
-116.0956113
0
LINE
8
0
10
292.5132501
20
-116.0956113
11
276.1891036
21
-120.4696532
0
LINE
8
0
10
276.1891036
20
-120.4696532
11
280.5631455
21
-136.7937997
0
LINE
8
0
10
276.1632217
20
-120.3730607
11
292.4873682
21
-115.9990188
0
LINE
8
0
10
292.4873682
20
-115.9990188
11
288.1133263
21
-99.6748723
0
LINE
8
0
10
288.1133263
20
-99.6748723
11
271.7891798
21
-104.0489142
0
LINE
8
0
10
271.7891798
20
-104.0489142
11
276.1632217
21
-120.3730607
0
LINE
8
0
10
271.7632979
20
-103.9523216
11
288.0874444
21
-99.5782797
0
LINE
8
0
10
288.0874444
20
-99.5782797
11
283.7134025
21
-83.2541332
0
LINE
8
0
10
283.7134025
20
-83.2541332
11
267.389256
21
-87.6281751
0
LINE
8
0
10
267.389256
20
-87.6281751
11
271.7632979
21
-103.9523216
0
LINE
8
0
10
267.3633742
20
-87.5315826
11
283.6875207
21
-83.1575407
0
LINE
8
0
10
283.6875207
20
-83.1575407
11
279.3134788
21
-66.8333942
0
LINE
8
0
10
279.3134788
20
-66.8333942
11
262.9893323
21
-71.2074361
0
LINE
8
0
10
262.9893323
20
-71.2074361
11
267.3633742
21
-87.5315826
0
LINE
8
0
10
262.9634504
20
-71.1108436
11
279.2875969
21
-66.7368017
0
LINE
8
0
10
279.2875969
20
-66.7368017
11
274.913555
21
-50.4126552
0
LINE
8
0
10
274.913555
20
-50.4126552
11
258.5894085
21
-54.7866971
0
LINE
8
0
10
258.5894085
20
-54.7866971
11
262.9634504
21
-71.1108436
0
LINE
8
0
10
263.4953588
20
-138.7789089
11
279.8195053
21
-134.404867
0
LINE
8
0
10
279.8195053
20
-134.404867
11
275.4454634
21
-118.0807205
0
LINE
8
0
10
275.4454634
20
-118.0807205
11
259.1213169
21
-122.4547624
0
LINE
8
0
10
259.1213169
20
-122.4547624
11
263.4953588
21
-138.7789089
0
LINE
8
0
10
259.095435
20
-122.3581699
11
275.4195815
21
-117.984128
0
LINE
8
0
10
275.4195815
20
-117.984128
11
271.0455396
21
-101.6599815
0
LINE
8
0
10
271.0455396
20
-101.6599815
11
254.7213931
21
-106.0340234
0
LINE
8
0
10
254.7213931
20
-106.0340234
11
259.095435
21
-122.3581699
0
LINE
8
0
10
254.6955113
20
-105.9374308
11
271.0196578
21
-101.5633889
0
LINE
8
0
10
271.0196578
20
-101.5633889
11
266.6456159
21
-85.2392424
0
LINE
8
0
10
266.6456159
20
-85.2392424
11
250.3214694
21
-89.6132843
0
LINE
8
0
10
250.3214694
20
-89.6132843
11
254.6955113
21
-105.9374308
0
LINE
8
0
10
250.2955875
20
-89.5166918
11
266.619734
21
-85.1426499
0
LINE
8
0
10
266.619734
20
-85.1426499
11
262.2456921
21
-68.8185034
0
LINE
8
0
10
262.2456921
20
-68.8185034
11
245.9215456
21
-73.1925453
0
LINE
8
0
10
245.9215456
20
-73.1925453
11
250.2955875
21
-89.5166918
0
LINE
8
0
10
245.8956637
20
-73.0959528
11
262.2198102
21
-68.7219109
0
LINE
8
0
10
262.2198102
20
-68.7219109
11
257.8457683
21
-52.3977644
0
LINE
8
0
10
257.8457683
20
-52.3977644
11
241.5216218
21
-56.7718063
0
LINE
8
0
10
241.5216218
20
-56.7718063
11
245.8956637
21
-73.0959528
0
LINE
8
0
10
247.7216674
20
-145.5936473
11
264.0458139
21
-141.2196054
0
LINE
8
0
10
264.0458139
20
-141.2196054
11
259.671772
21
-124.8954589
0
LINE
8
0
10
259.671772
20
-124.8954589
11
243.3476255
21
-129.2695008
0
LINE
8
0
10
243.3476255
20
-129.2695008
11
247.7216674
21
-145.5936473
0
LINE
8
0
10
243.3217436
20
-129.1729082
11
259.6458901
21
-124.7988663
0
LINE
8
0
10
259.6458901
20
-124.7988663
11
255.2718482
21
-108.4747198
0
LINE
8
0
10
255.2718482
20
-108.4747198
11
238.9477017
21
-112.8487617
0
LINE
8
0
10
238.9477017
20
-112.8487617
11
243.3217436
21
-129.1729082
0
LINE
8
0
10
238.9218198
20
-112.7521692
11
255.2459663
21
-108.3781273
0
LINE
8
0
10
255.2459663
20
-108.3781273
11
250.8719244
21
-92.0539808
0
LINE
8
0
10
250.8719244
20
-92.0539808
11
234.5477779
21
-96.4280227
0
LINE
8
0
10
234.5477779
20
-96.4280227
11
238.9218198
21
-112.7521692
0
LINE
8
0
10
234.5218961
20
-96.3314301
11
250.8460426
21
-91.9573882
0
LINE
8
0
10
250.8460426
20
-91.9573882
11
246.4720007
21
-75.6332417
0
LINE
8
0
10
246.4720007
20
-75.6332417
11
230.1478542
21
-80.0072836
0
LINE
8
0
10
230.1478542
20
-80.0072836
11
234.5218961
21
-96.3314301
0
LINE
8
0
10
230.1219723
20
-79.9106911
11
246.4461188
21
-75.5366492
0
LINE
8
0
10
246.4461188
20
-75.5366492
11
242.0720769
21
-59.2125027
0
LINE
8
0
10
242.0720769
20
-59.2125027
11
225.7479304
21
-63.5865446
0
LINE
8
0
10
225.7479304
20
-63.5865446
11
230.1219723
21
-79.9106911
0
LINE
8
0
10
227.5480522
20
-135.9876466
11
243.8721987
21
-131.6136047
0
LINE
8
0
10
243.8721987
20
-131.6136047
11
239.4981568
21
-115.2894582
0
LINE
8
0
10
239.4981568
20
-115.2894582
11
223.1740103
21
-119.6635001
0
LINE
8
0
10
223.1740103
20
-119.6635001
11
227.5480522
21
-135.9876466
0
LINE
8
0
10
223.1481284
20
-119.5669075
11
239.4722749
21
-115.1928656
0
LINE
8
0
10
239.4722749
20
-115.1928656
11
235.098233
21
-98.8687191
0
LINE
8
0
10
235.098233
20
-98.8687191
11
218.7740865
21
-103.242761
0
LINE
8
0
10
218.7740865
20
-103.242761
11
223.1481284
21
-119.5669075
0
LINE
8
0
10
218.7482046
20
-103.1461685
11
235.0723511
21
-98.7721266
0
LINE
8
0
10
235.0723511
20
-98.7721266
11
230.6983092
21
-82.4479801
0
LINE
8
0
10
230.6983092
20
-82.4479801
11
214.3741627
21
-86.822022
0
LINE
8
0
10
214.3741627
20
-86.822022
11
218.7482046
21
-103.1461685
0
LINE
8
0
10
214.3482809
20
-86.7254294
11
230.6724274
21
-82.3513875
0
LINE
8
0
10
230.6724274
20
-82.3513875
11
226.2983855
21
-66.027241
0
LINE
8
0
10
226.2983855
20
-66.027241
11
209.974239
21
-70.4012829
0
LINE
8
0
10
209.974239
20
-70.4012829
11
214.3482809
21
-86.7254294
0
LINE
8
0
10
233.4159
20
-156.0516958
11
248.0517294
21
-147.6016958
0
LINE
8
0
10
248.0517294
20
-147.6016958
11
239.6017294
21
-132.9658664
0
LINE
8
0
10
239.6017294
20
-132.9658664
11
224.9659
21
-141.4158664
0
LINE
8
0
10
224.9659
20
-141.4158664
11
233.4159
21
-156.0516958
0
LINE
8
0
10
221.0792761
20
-168.4944197
11
233.0293807
21
-156.5443151
0
LINE
8
0
10
233.0293807
20
-156.5443151
11
221.0792761
21
-144.5942105
0
LINE
8
0
10
221.0792761
20
-144.5942105
11
209.1291715
21
-156.5443151
0
LINE
8
0
10
209.1291715
20
-156.5443151
11
221.0792761
21
-168.4944197
0
ENDSEC
0
EOF