0
SECTION
2
HEADER
9
$INSUNITS
70
4
0
ENDSEC
0
SECTION
2
TABLES
0
TABLE
2
LTYPE
0
LTYPE
72
65
70
64
2
CONTINUOUS
3
______
73
0
40
0
0
ENDTAB
0
TABLE
2
LAYER
0
ENDTAB
0
ENDSEC
0
SECTION
2
ENTITIES
0
LINE
8
0
10
64.7002705
20
-112.0641557
11
97.5417485
21
-120.8640033
0
LINE
8
0
10
69.1001943
20
-95.6434167
11
64.7002705
21
-112.0641557
0
LINE
8
0
10
69.1001943
20
-95.6434166
11
82.2999656
21
-46.3811996
0
LINE
8
0
10
82.2999656
20
-46.3811996
11
115.1414436
21
-55.1810471
0
LINE
8
0
10
94.43592
20
-132.4551131
11
110.856659
21
-136.8550369
0
LINE
8
0
10
110.856659
20
-136.8550369
11
111.5037067
21
-134.4402223
0
LINE
8
0
10
97.5417485
20
-120.8640033
11
94.43592
21
-132.4551131
0
LINE
8
0
10
132.8562779
20
-54.7513418
11
116.4355389
21
-50.351418
0
LINE
8
0
10
116.4355389
20
-50.351418
11
115.1414436
21
-55.1810471
0
LINE
8
0
10
111.5037067
20
-134.4402223
11
127.9244457
21
-138.8401461
0
LINE
8
0
10
149.277017
20
-59.1512655
11
149.9240646
21
-56.736451
0
LINE
8
0
10
149.9240646
20
-56.736451
11
133.5033256
21
-52.3365272
0
LINE
8
0
10
133.5033256
20
-52.3365272
11
132.8562779
21
-54.7513418
0
LINE
8
0
10
127.2773981
20
-141.2549607
11
143.6981371
21
-145.6548845
0
LINE
8
0
10
143.6981371
20
-145.6548845
11
147.4510133
21
-131.64896
0
LINE
8
0
10
127.9244457
20
-138.8401461
11
127.2773981
21
-141.2549607
0
LINE
8
0
10
165.0507084
20
-65.9660038
11
165.697756
21
-63.5511893
0
LINE
8
0
10
165.697756
20
-63.5511893
11
149.277017
21
-59.1512655
0
LINE
8
0
10
147.4510133
20
-131.64896
11
163.8717523
21
-136.0488838
0
LINE
8
0
10
163.8717523
20
-136.0488838
11
168.2716761
21
-119.6281448
0
LINE
8
0
10
168.2716761
20
-119.6281447
11
177.0715237
21
-86.7866667
0
LINE
8
0
10
177.0715236
20
-86.7866666
11
181.4714474
21
-70.3659276
0
LINE
8
0
10
181.4714474
20
-70.3659276
11
165.0507084
21
-65.9660038
0
LINE
8
0
10
143.2644186
20
-147.619997
11
157.9868504
21
-156.119997
0
LINE
8
0
10
157.9868504
20
-156.119997
11
166.4868504
21
-141.3975652
0
LINE
8
0
10
166.4868504
20
-141.3975652
11
151.7644186
21
-132.8975652
0
LINE
8
0
10
151.7644186
20
-132.8975652
11
143.2644186
21
-147.619997
0
LINE
8
0
10
158.2843578
20
-156.5443151
11
170.3051731
21
-168.5651304
0
LINE
8
0
10
170.3051731
20
-168.5651304
11
182.3259884
21
-156.5443151
0
LINE
8
0
10
182.3259884
20
-156.5443151
11
170.3051731
21
-144.5234998
0
LINE
8
0
10
170.3051731
20
-144.5234998
11
158.2843578
21
-156.5443151
0
LINE
8
0
10
293.8427007
20
-120.8640033
11
326.6841787
21
-112.0641557
0
LINE
8
0
10
326.6841787
20
-112.0641557
11
322.2842549
21
-95.6434167
0
LINE
8
0
10
309.0844836
20
-46.3811996
11
322.2842549
21
-95.6434166
0
LINE
8
0
10
276.2430056
20
-55.1810471
11
309.0844836
21
-46.3811996
0
LINE
8
0
10
280.5277902
20
-136.8550369
11
296.9485292
21
-132.4551131
0
LINE
8
0
10
296.9485292
20
-132.4551131
11
293.8427007
21
-120.8640033
0
LINE
8
0
10
279.8807425
20
-134.4402223
11
280.5277902
21
-136.8550369
0
LINE
8
0
10
276.2430056
20
-55.1810471
11
274.9489103
21
-50.351418
0
LINE
8
0
10
274.9489103
20
-50.351418
11
258.5281713
21
-54.7513418
0
LINE
8
0
10
263.4600035
20
-138.8401461
11
279.8807425
21
-134.4402223
0
LINE
8
0
10
258.5281713
20
-54.7513418
11
257.8811236
21
-52.3365272
0
LINE
8
0
10
257.8811236
20
-52.3365272
11
241.4603846
21
-56.736451
0
LINE
8
0
10
241.4603846
20
-56.736451
11
242.1074322
21
-59.1512655
0
LINE
8
0
10
247.6863121
20
-145.6548845
11
264.1070511
21
-141.2549607
0
LINE
8
0
10
264.1070511
20
-141.2549607
11
263.4600035
21
-138.8401461
0
LINE
8
0
10
243.9334359
20
-131.64896
11
247.6863121
21
-145.6548845
0
LINE
8
0
10
242.1074322
20
-59.1512655
11
225.6866932
21
-63.5511893
0
LINE
8
0
10
225.6866932
20
-63.5511893
11
226.3337408
21
-65.9660038
0
LINE
8
0
10
227.5126969
20
-136.0488838
11
243.9334359
21
-131.64896
0
LINE
8
0
10
223.1127731
20
-119.6281448
11
227.5126969
21
-136.0488838
0
LINE
8
0
10
214.3129255
20
-86.7866667
11
223.1127731
21
-119.6281447
0
LINE
8
0
10
226.3337408
20
-65.9660038
11
209.9130018
21
-70.3659276
0
LINE
8
0
10
209.9130018
20
-70.3659276
11
214.3129256
21
-86.7866666
0
LINE
8
0
10
233.3975988
20
-156.119997
11
248.1200306
21
-147.619997
0
LINE
8
0
10
248.1200306
20
-147.619997
11
239.6200306
21
-132.8975652
0
LINE
8
0
10
239.6200306
20
-132.8975652
11
224.8975988
21
-141.3975652
0
LINE
8
0
10
224.8975988
20
-141.3975652
11
233.3975988
21
-156.119997
0
LINE
8
0
10
221.0792761
20
-168.5651304
11
233.1000914
21
-156.5443151
0
LINE
8
0
10
233.1000914
20
-156.5443151
11
221.0792761
21
-144.5234998
0
LINE
8
0
10
221.0792761
20
-144.5234998
11
209.0584608
21
-156.5443151
0
LINE
8
0
10
209.0584608
20
-156.5443151
11
221.0792761
21
-168.5651304
0
ENDSEC
0
EOF