0
SECTION
2
HEADER
9
$INSUNITS
70
4
0
ENDSEC
0
SECTION
2
TABLES
0
TABLE
2
LTYPE
0
LTYPE
72
65
70
64
2
CONTINUOUS
3
______
73
0
40
0
0
ENDTAB
0
TABLE
2
LAYER
0
ENDTAB
0
ENDSEC
0
SECTION
2
ENTITIES
0
LINE
8
0
10
66.6598623
20
-110.9327849
11
79.9896387
21
-114.5044877
0
LINE
8
0
10
79.9896387
20
-114.5044877
11
83.5613415
21
-101.1747113
0
LINE
8
0
10
83.5613415
20
-101.1747113
11
70.2315651
21
-97.6030085
0
LINE
8
0
10
70.2315651
20
-97.6030085
11
66.6598623
21
-110.9327849
0
LINE
8
0
10
71.0597861
20
-94.5120458
11
84.3895625
21
-98.0837486
0
LINE
8
0
10
84.3895625
20
-98.0837486
11
87.9612653
21
-84.7539722
0
LINE
8
0
10
87.9612653
20
-84.7539722
11
74.6314889
21
-81.1822694
0
LINE
8
0
10
74.6314889
20
-81.1822694
11
71.0597861
21
-94.5120458
0
LINE
8
0
10
75.4597098
20
-78.0913068
11
88.7894862
21
-81.6630096
0
LINE
8
0
10
88.7894862
20
-81.6630096
11
92.361189
21
-68.3332332
0
LINE
8
0
10
92.361189
20
-68.3332332
11
79.0314126
21
-64.7615304
0
LINE
8
0
10
79.0314126
20
-64.7615304
11
75.4597098
21
-78.0913068
0
LINE
8
0
10
79.8596336
20
-61.6705678
11
93.18941
21
-65.2422706
0
LINE
8
0
10
93.18941
20
-65.2422706
11
96.7611128
21
-51.9124942
0
LINE
8
0
10
96.7611128
20
-51.9124942
11
83.4313364
21
-48.3407914
0
LINE
8
0
10
83.4313364
20
-48.3407914
11
79.8596336
21
-61.6705678
0
LINE
8
0
10
83.0806013
20
-115.3327087
11
96.4103777
21
-118.9044115
0
LINE
8
0
10
96.4103777
20
-118.9044115
11
99.9820805
21
-105.5746351
0
LINE
8
0
10
99.9820805
20
-105.5746351
11
86.6523041
21
-102.0029323
0
LINE
8
0
10
86.6523041
20
-102.0029323
11
83.0806013
21
-115.3327087
0
LINE
8
0
10
87.4805251
20
-98.9119696
11
100.8103015
21
-102.4836724
0
LINE
8
0
10
100.8103015
20
-102.4836724
11
104.3820043
21
-89.153896
0
LINE
8
0
10
104.3820043
20
-89.153896
11
91.0522279
21
-85.5821932
0
LINE
8
0
10
91.0522279
20
-85.5821932
11
87.4805251
21
-98.9119696
0
LINE
8
0
10
91.8804489
20
-82.4912306
11
105.2102253
21
-86.0629334
0
LINE
8
0
10
105.2102253
20
-86.0629334
11
108.7819281
21
-72.733157
0
LINE
8
0
10
108.7819281
20
-72.733157
11
95.4521517
21
-69.1614542
0
LINE
8
0
10
95.4521517
20
-69.1614542
11
91.8804489
21
-82.4912306
0
LINE
8
0
10
96.2803726
20
-66.0704915
11
109.610149
21
-69.6421943
0
LINE
8
0
10
109.610149
20
-69.6421943
11
113.1818518
21
-56.3124179
0
LINE
8
0
10
113.1818518
20
-56.3124179
11
99.8520754
21
-52.7407151
0
LINE
8
0
10
99.8520754
20
-52.7407151
11
96.2803726
21
-66.0704915
0
LINE
8
0
10
96.3955118
20
-131.3237423
11
109.7252882
21
-134.8954451
0
LINE
8
0
10
109.7252882
20
-134.8954451
11
113.296991
21
-121.5656687
0
LINE
8
0
10
113.296991
20
-121.5656687
11
99.9672146
21
-117.9939659
0
LINE
8
0
10
99.9672146
20
-117.9939659
11
96.3955118
21
-131.3237423
0
LINE
8
0
10
100.7954356
20
-114.9030033
11
114.125212
21
-118.4747061
0
LINE
8
0
10
114.125212
20
-118.4747061
11
117.6969148
21
-105.1449297
0
LINE
8
0
10
117.6969148
20
-105.1449297
11
104.3671384
21
-101.5732269
0
LINE
8
0
10
104.3671384
20
-101.5732269
11
100.7954356
21
-114.9030033
0
LINE
8
0
10
105.1953594
20
-98.4822642
11
118.5251358
21
-102.053967
0
LINE
8
0
10
118.5251358
20
-102.053967
11
122.0968386
21
-88.7241906
0
LINE
8
0
10
122.0968386
20
-88.7241906
11
108.7670622
21
-85.1524878
0
LINE
8
0
10
108.7670622
20
-85.1524878
11
105.1953594
21
-98.4822642
0
LINE
8
0
10
109.5952831
20
-82.0615252
11
122.9250595
21
-85.633228
0
LINE
8
0
10
122.9250595
20
-85.633228
11
126.4967623
21
-72.3034516
0
LINE
8
0
10
126.4967623
20
-72.3034516
11
113.1669859
21
-68.7317488
0
LINE
8
0
10
113.1669859
20
-68.7317488
11
109.5952831
21
-82.0615252
0
LINE
8
0
10
113.9952069
20
-65.6407862
11
127.3249833
21
-69.212489
0
LINE
8
0
10
127.3249833
20
-69.212489
11
130.8966861
21
-55.8827126
0
LINE
8
0
10
130.8966861
20
-55.8827126
11
117.5669097
21
-52.3110098
0
LINE
8
0
10
117.5669097
20
-52.3110098
11
113.9952069
21
-65.6407862
0
LINE
8
0
10
113.4632985
20
-133.3088515
11
126.7930749
21
-136.8805543
0
LINE
8
0
10
126.7930749
20
-136.8805543
11
130.3647777
21
-123.5507779
0
LINE
8
0
10
130.3647777
20
-123.5507779
11
117.0350013
21
-119.9790751
0
LINE
8
0
10
117.0350013
20
-119.9790751
11
113.4632985
21
-133.3088515
0
LINE
8
0
10
117.8632223
20
-116.8881125
11
131.1929987
21
-120.4598153
0
LINE
8
0
10
131.1929987
20
-120.4598153
11
134.7647015
21
-107.1300389
0
LINE
8
0
10
134.7647015
20
-107.1300389
11
121.4349251
21
-103.5583361
0
LINE
8
0
10
121.4349251
20
-103.5583361
11
117.8632223
21
-116.8881125
0
LINE
8
0
10
122.263146
20
-100.4673734
11
135.5929224
21
-104.0390762
0
LINE
8
0
10
135.5929224
20
-104.0390762
11
139.1646252
21
-90.7092998
0
LINE
8
0
10
139.1646252
20
-90.7092998
11
125.8348488
21
-87.137597
0
LINE
8
0
10
125.8348488
20
-87.137597
11
122.263146
21
-100.4673734
0
LINE
8
0
10
126.6630698
20
-84.0466344
11
139.9928462
21
-87.6183372
0
LINE
8
0
10
139.9928462
20
-87.6183372
11
143.564549
21
-74.2885608
0
LINE
8
0
10
143.564549
20
-74.2885608
11
130.2347726
21
-70.716858
0
LINE
8
0
10
130.2347726
20
-70.716858
11
126.6630698
21
-84.0466344
0
LINE
8
0
10
131.0629936
20
-67.6258954
11
144.39277
21
-71.1975982
0
LINE
8
0
10
144.39277
20
-71.1975982
11
147.9644728
21
-57.8678218
0
LINE
8
0
10
147.9644728
20
-57.8678218
11
134.6346964
21
-54.296119
0
LINE
8
0
10
134.6346964
20
-54.296119
11
131.0629936
21
-67.6258954
0
LINE
8
0
10
129.2369899
20
-140.1235899
11
142.5667663
21
-143.6952927
0
LINE
8
0
10
142.5667663
20
-143.6952927
11
146.1384691
21
-130.3655163
0
LINE
8
0
10
146.1384691
20
-130.3655163
11
132.8086927
21
-126.7938135
0
LINE
8
0
10
132.8086927
20
-126.7938135
11
129.2369899
21
-140.1235899
0
LINE
8
0
10
133.6369137
20
-123.7028508
11
146.9666901
21
-127.2745536
0
LINE
8
0
10
146.9666901
20
-127.2745536
11
150.5383929
21
-113.9447772
0
LINE
8
0
10
150.5383929
20
-113.9447772
11
137.2086165
21
-110.3730744
0
LINE
8
0
10
137.2086165
20
-110.3730744
11
133.6369137
21
-123.7028508
0
LINE
8
0
10
138.0368375
20
-107.2821118
11
151.3666139
21
-110.8538146
0
LINE
8
0
10
151.3666139
20
-110.8538146
11
154.9383167
21
-97.5240382
0
LINE
8
0
10
154.9383167
20
-97.5240382
11
141.6085403
21
-93.9523354
0
LINE
8
0
10
141.6085403
20
-93.9523354
11
138.0368375
21
-107.2821118
0
LINE
8
0
10
142.4367612
20
-90.8613727
11
155.7665376
21
-94.4330755
0
LINE
8
0
10
155.7665376
20
-94.4330755
11
159.3382404
21
-81.1032991
0
LINE
8
0
10
159.3382404
20
-81.1032991
11
146.008464
21
-77.5315963
0
LINE
8
0
10
146.008464
20
-77.5315963
11
142.4367612
21
-90.8613727
0
LINE
8
0
10
146.836685
20
-74.4406337
11
160.1664614
21
-78.0123365
0
LINE
8
0
10
160.1664614
20
-78.0123365
11
163.7381642
21
-64.6825601
0
LINE
8
0
10
163.7381642
20
-64.6825601
11
150.4083878
21
-61.1108573
0
LINE
8
0
10
150.4083878
20
-61.1108573
11
146.836685
21
-74.4406337
0
LINE
8
0
10
149.4106051
20
-130.5175892
11
162.7403815
21
-134.089292
0
LINE
8
0
10
162.7403815
20
-134.089292
11
166.3120843
21
-120.7595156
0
LINE
8
0
10
166.3120843
20
-120.7595156
11
152.9823079
21
-117.1878128
0
LINE
8
0
10
152.9823079
20
-117.1878128
11
149.4106051
21
-130.5175892
0
LINE
8
0
10
153.8105289
20
-114.0968501
11
167.1403053
21
-117.6685529
0
LINE
8
0
10
167.1403053
20
-117.6685529
11
170.7120081
21
-104.3387765
0
LINE
8
0
10
170.7120081
20
-104.3387765
11
157.3822317
21
-100.7670737
0
LINE
8
0
10
157.3822317
20
-100.7670737
11
153.8105289
21
-114.0968501
0
LINE
8
0
10
158.2104527
20
-97.6761111
11
171.5402291
21
-101.2478139
0
LINE
8
0
10
171.5402291
20
-101.2478139
11
175.1119319
21
-87.9180375
0
LINE
8
0
10
175.1119319
20
-87.9180375
11
161.7821555
21
-84.3463347
0
LINE
8
0
10
161.7821555
20
-84.3463347
11
158.2104527
21
-97.6761111
0
LINE
8
0
10
162.6103764
20
-81.255372
11
175.9401528
21
-84.8270748
0
LINE
8
0
10
175.9401528
20
-84.8270748
11
179.5118556
21
-71.4972984
0
LINE
8
0
10
179.5118556
20
-71.4972984
11
166.1820792
21
-67.9255956
0
LINE
8
0
10
166.1820792
20
-67.9255956
11
162.6103764
21
-81.255372
0
LINE
8
0
10
145.4500592
20
-147.0343564
11
157.4012098
21
-153.9343564
0
LINE
8
0
10
157.4012098
20
-153.9343564
11
164.3012098
21
-141.9832058
0
LINE
8
0
10
164.3012098
20
-141.9832058
11
152.3500592
21
-135.0832058
0
LINE
8
0
10
152.3500592
20
-135.0832058
11
145.4500592
21
-147.0343564
0
LINE
8
0
10
160.5470995
20
-156.5443151
11
170.3051731
21
-166.3023887
0
LINE
8
0
10
170.3051731
20
-166.3023887
11
180.0632467
21
-156.5443151
0
LINE
8
0
10
180.0632467
20
-156.5443151
11
170.3051731
21
-146.7862415
0
LINE
8
0
10
170.3051731
20
-146.7862415
11
160.5470995
21
-156.5443151
0
LINE
8
0
10
311.3948105
20
-114.5044877
11
324.7245869
21
-110.9327849
0
LINE
8
0
10
324.7245869
20
-110.9327849
11
321.1528841
21
-97.6030085
0
LINE
8
0
10
321.1528841
20
-97.6030085
11
307.8231077
21
-101.1747113
0
LINE
8
0
10
307.8231077
20
-101.1747113
11
311.3948105
21
-114.5044877
0
LINE
8
0
10
306.9948867
20
-98.0837486
11
320.3246631
21
-94.5120458
0
LINE
8
0
10
320.3246631
20
-94.5120458
11
316.7529603
21
-81.1822694
0
LINE
8
0
10
316.7529603
20
-81.1822694
11
303.4231839
21
-84.7539722
0
LINE
8
0
10
303.4231839
20
-84.7539722
11
306.9948867
21
-98.0837486
0
LINE
8
0
10
302.594963
20
-81.6630096
11
315.9247394
21
-78.0913068
0
LINE
8
0
10
315.9247394
20
-78.0913068
11
312.3530366
21
-64.7615304
0
LINE
8
0
10
312.3530366
20
-64.7615304
11
299.0232602
21
-68.3332332
0
LINE
8
0
10
299.0232602
20
-68.3332332
11
302.594963
21
-81.6630096
0
LINE
8
0
10
298.1950392
20
-65.2422706
11
311.5248156
21
-61.6705678
0
LINE
8
0
10
311.5248156
20
-61.6705678
11
307.9531128
21
-48.3407914
0
LINE
8
0
10
307.9531128
20
-48.3407914
11
294.6233364
21
-51.9124942
0
LINE
8
0
10
294.6233364
20
-51.9124942
11
298.1950392
21
-65.2422706
0
LINE
8
0
10
294.9740715
20
-118.9044115
11
308.3038479
21
-115.3327087
0
LINE
8
0
10
308.3038479
20
-115.3327087
11
304.7321451
21
-102.0029323
0
LINE
8
0
10
304.7321451
20
-102.0029323
11
291.4023687
21
-105.5746351
0
LINE
8
0
10
291.4023687
20
-105.5746351
11
294.9740715
21
-118.9044115
0
LINE
8
0
10
290.5741477
20
-102.4836724
11
303.9039241
21
-98.9119696
0
LINE
8
0
10
303.9039241
20
-98.9119696
11
300.3322213
21
-85.5821932
0
LINE
8
0
10
300.3322213
20
-85.5821932
11
287.0024449
21
-89.153896
0
LINE
8
0
10
287.0024449
20
-89.153896
11
290.5741477
21
-102.4836724
0
LINE
8
0
10
286.1742239
20
-86.0629334
11
299.5040003
21
-82.4912306
0
LINE
8
0
10
299.5040003
20
-82.4912306
11
295.9322975
21
-69.1614542
0
LINE
8
0
10
295.9322975
20
-69.1614542
11
282.6025211
21
-72.733157
0
LINE
8
0
10
282.6025211
20
-72.733157
11
286.1742239
21
-86.0629334
0
LINE
8
0
10
281.7743002
20
-69.6421943
11
295.1040766
21
-66.0704915
0
LINE
8
0
10
295.1040766
20
-66.0704915
11
291.5323738
21
-52.7407151
0
LINE
8
0
10
291.5323738
20
-52.7407151
11
278.2025974
21
-56.3124179
0
LINE
8
0
10
278.2025974
20
-56.3124179
11
281.7743002
21
-69.6421943
0
LINE
8
0
10
281.659161
20
-134.8954451
11
294.9889374
21
-131.3237423
0
LINE
8
0
10
294.9889374
20
-131.3237423
11
291.4172346
21
-117.9939659
0
LINE
8
0
10
291.4172346
20
-117.9939659
11
278.0874582
21
-121.5656687
0
LINE
8
0
10
278.0874582
20
-121.5656687
11
281.659161
21
-134.8954451
0
LINE
8
0
10
277.2592372
20
-118.4747061
11
290.5890136
21
-114.9030033
0
LINE
8
0
10
290.5890136
20
-114.9030033
11
287.0173108
21
-101.5732269
0
LINE
8
0
10
287.0173108
20
-101.5732269
11
273.6875344
21
-105.1449297
0
LINE
8
0
10
273.6875344
20
-105.1449297
11
277.2592372
21
-118.4747061
0
LINE
8
0
10
272.8593134
20
-102.053967
11
286.1890898
21
-98.4822642
0
LINE
8
0
10
286.1890898
20
-98.4822642
11
282.617387
21
-85.1524878
0
LINE
8
0
10
282.617387
20
-85.1524878
11
269.2876106
21
-88.7241906
0
LINE
8
0
10
269.2876106
20
-88.7241906
11
272.8593134
21
-102.053967
0
LINE
8
0
10
268.4593897
20
-85.633228
11
281.7891661
21
-82.0615252
0
LINE
8
0
10
281.7891661
20
-82.0615252
11
278.2174633
21
-68.7317488
0
LINE
8
0
10
278.2174633
20
-68.7317488
11
264.8876869
21
-72.3034516
0
LINE
8
0
10
264.8876869
20
-72.3034516
11
268.4593897
21
-85.633228
0
LINE
8
0
10
264.0594659
20
-69.212489
11
277.3892423
21
-65.6407862
0
LINE
8
0
10
277.3892423
20
-65.6407862
11
273.8175395
21
-52.3110098
0
LINE
8
0
10
273.8175395
20
-52.3110098
11
260.4877631
21
-55.8827126
0
LINE
8
0
10
260.4877631
20
-55.8827126
11
264.0594659
21
-69.212489
0
LINE
8
0
10
264.5913743
20
-136.8805543
11
277.9211507
21
-133.3088515
0
LINE
8
0
10
277.9211507
20
-133.3088515
11
274.3494479
21
-119.9790751
0
LINE
8
0
10
274.3494479
20
-119.9790751
11
261.0196715
21
-123.5507779
0
LINE
8
0
10
261.0196715
20
-123.5507779
11
264.5913743
21
-136.8805543
0
LINE
8
0
10
260.1914505
20
-120.4598153
11
273.5212269
21
-116.8881125
0
LINE
8
0
10
273.5212269
20
-116.8881125
11
269.9495241
21
-103.5583361
0
LINE
8
0
10
269.9495241
20
-103.5583361
11
256.6197477
21
-107.1300389
0
LINE
8
0
10
256.6197477
20
-107.1300389
11
260.1914505
21
-120.4598153
0
LINE
8
0
10
255.7915268
20
-104.0390762
11
269.1213032
21
-100.4673734
0
LINE
8
0
10
269.1213032
20
-100.4673734
11
265.5496004
21
-87.137597
0
LINE
8
0
10
265.5496004
20
-87.137597
11
252.219824
21
-90.7092998
0
LINE
8
0
10
252.219824
20
-90.7092998
11
255.7915268
21
-104.0390762
0
LINE
8
0
10
251.391603
20
-87.6183372
11
264.7213794
21
-84.0466344
0
LINE
8
0
10
264.7213794
20
-84.0466344
11
261.1496766
21
-70.716858
0
LINE
8
0
10
261.1496766
20
-70.716858
11
247.8199002
21
-74.2885608
0
LINE
8
0
10
247.8199002
20
-74.2885608
11
251.391603
21
-87.6183372
0
LINE
8
0
10
246.9916792
20
-71.1975982
11
260.3214556
21
-67.6258954
0
LINE
8
0
10
260.3214556
20
-67.6258954
11
256.7497528
21
-54.296119
0
LINE
8
0
10
256.7497528
20
-54.296119
11
243.4199764
21
-57.8678218
0
LINE
8
0
10
243.4199764
20
-57.8678218
11
246.9916792
21
-71.1975982
0
LINE
8
0
10
248.8176829
20
-143.6952927
11
262.1474593
21
-140.1235899
0
LINE
8
0
10
262.1474593
20
-140.1235899
11
258.5757565
21
-126.7938135
0
LINE
8
0
10
258.5757565
20
-126.7938135
11
245.2459801
21
-130.3655163
0
LINE
8
0
10
245.2459801
20
-130.3655163
11
248.8176829
21
-143.6952927
0
LINE
8
0
10
244.4177591
20
-127.2745536
11
257.7475355
21
-123.7028508
0
LINE
8
0
10
257.7475355
20
-123.7028508
11
254.1758327
21
-110.3730744
0
LINE
8
0
10
254.1758327
20
-110.3730744
11
240.8460563
21
-113.9447772
0
LINE
8
0
10
240.8460563
20
-113.9447772
11
244.4177591
21
-127.2745536
0
LINE
8
0
10
240.0178353
20
-110.8538146
11
253.3476117
21
-107.2821118
0
LINE
8
0
10
253.3476117
20
-107.2821118
11
249.7759089
21
-93.9523354
0
LINE
8
0
10
249.7759089
20
-93.9523354
11
236.4461325
21
-97.5240382
0
LINE
8
0
10
236.4461325
20
-97.5240382
11
240.0178353
21
-110.8538146
0
LINE
8
0
10
235.6179116
20
-94.4330755
11
248.947688
21
-90.8613727
0
LINE
8
0
10
248.947688
20
-90.8613727
11
245.3759852
21
-77.5315963
0
LINE
8
0
10
245.3759852
20
-77.5315963
11
232.0462088
21
-81.1032991
0
LINE
8
0
10
232.0462088
20
-81.1032991
11
235.6179116
21
-94.4330755
0
LINE
8
0
10
231.2179878
20
-78.0123365
11
244.5477642
21
-74.4406337
0
LINE
8
0
10
244.5477642
20
-74.4406337
11
240.9760614
21
-61.1108573
0
LINE
8
0
10
240.9760614
20
-61.1108573
11
227.646285
21
-64.6825601
0
LINE
8
0
10
227.646285
20
-64.6825601
11
231.2179878
21
-78.0123365
0
LINE
8
0
10
228.6440677
20
-134.089292
11
241.9738441
21
-130.5175892
0
LINE
8
0
10
241.9738441
20
-130.5175892
11
238.4021413
21
-117.1878128
0
LINE
8
0
10
238.4021413
20
-117.1878128
11
225.0723649
21
-120.7595156
0
LINE
8
0
10
225.0723649
20
-120.7595156
11
228.6440677
21
-134.089292
0
LINE
8
0
10
224.2441439
20
-117.6685529
11
237.5739203
21
-114.0968501
0
LINE
8
0
10
237.5739203
20
-114.0968501
11
234.0022175
21
-100.7670737
0
LINE
8
0
10
234.0022175
20
-100.7670737
11
220.6724411
21
-104.3387765
0
LINE
8
0
10
220.6724411
20
-104.3387765
11
224.2441439
21
-117.6685529
0
LINE
8
0
10
219.8442201
20
-101.2478139
11
233.1739965
21
-97.6761111
0
LINE
8
0
10
233.1739965
20
-97.6761111
11
229.6022937
21
-84.3463347
0
LINE
8
0
10
229.6022937
20
-84.3463347
11
216.2725173
21
-87.9180375
0
LINE
8
0
10
216.2725173
20
-87.9180375
11
219.8442201
21
-101.2478139
0
LINE
8
0
10
215.4442964
20
-84.8270748
11
228.7740728
21
-81.255372
0
LINE
8
0
10
228.7740728
20
-81.255372
11
225.20237
21
-67.9255956
0
LINE
8
0
10
225.20237
20
-67.9255956
11
211.8725936
21
-71.4972984
0
LINE
8
0
10
211.8725936
20
-71.4972984
11
215.4442964
21
-84.8270748
0
LINE
8
0
10
233.9832394
20
-153.9343564
11
245.93439
21
-147.0343564
0
LINE
8
0
10
245.93439
20
-147.0343564
11
239.03439
21
-135.0832058
0
LINE
8
0
10
239.03439
20
-135.0832058
11
227.0832394
21
-141.9832058
0
LINE
8
0
10
227.0832394
20
-141.9832058
11
233.9832394
21
-153.9343564
0
LINE
8
0
10
221.0792761
20
-166.3023887
11
230.8373497
21
-156.5443151
0
LINE
8
0
10
230.8373497
20
-156.5443151
11
221.0792761
21
-146.7862415
0
LINE
8
0
10
221.0792761
20
-146.7862415
11
211.3212025
21
-156.5443151
0
LINE
8
0
10
211.3212025
20
-156.5443151
11
221.0792761
21
-166.3023887
0
ENDSEC
0
EOF