0
SECTION
2
HEADER
9
$INSUNITS
70
4
0
ENDSEC
0
SECTION
2
TABLES
0
TABLE
2
LTYPE
0
LTYPE
72
65
70
64
2
CONTINUOUS
3
______
73
0
40
0
0
ENDTAB
0
TABLE
2
LAYER
0
ENDTAB
0
ENDSEC
0
SECTION
2
ENTITIES
0
LINE
8
0
10
91.209012
20
-21.2486747
11
140.3552844
21
-14.0212817
0
LINE
8
0
10
89.5
20
-23.227393
11
89.5
21
-92.0849698
0
LINE
8
0
10
90.8343598
20
-93.9709505
11
123.2041812
21
-105.3955934
0
LINE
8
0
10
123.8135793
20
-105.5088217
11
173.7673865
21
-106.9141337
0
LINE
8
0
10
174.4841377
20
-107.0687612
11
207.2376749
21
-120.7945145
0
LINE
8
0
10
209.7427191
20
-119.949933
11
218.3128582
21
-105.1060166
0
LINE
8
0
10
217.4964922
20
-102.3279499
11
196.5843152
21
-91.5584103
0
LINE
8
0
10
195.5
20
-89.7803436
11
195.5
21
-20.727393
0
LINE
8
0
10
193.790988
20
-18.7486747
11
161.6447156
21
-14.0212817
0
LINE
8
0
10
161.3537276
20
-14
11
140.6462724
21
-14
0
ARC
8
0
10
91.5
20
-23.227393
40
2
50
98.365887
51
180
0
ARC
8
0
10
91.5
20
-92.0849698
40
2
50
180
51
250.5599655
0
ARC
8
0
10
123.8698215
20
-103.5096127
40
2
50
250.5599655
51
268.3885672
0
ARC
8
0
10
173.7111443
20
-108.9133427
40
2
50
67.2633115
51
88.3885672
0
ARC
8
0
10
208.0106683
20
-118.949933
40
2
50
247.2633115
51
329.9999999
0
ARC
8
0
10
216.5808074
20
-104.1060166
40
2
50
329.9999999
51
62.7520318
0
ARC
8
0
10
197.5
20
-89.7803436
40
2
50
180
51
242.7520318
0
ARC
8
0
10
193.5
20
-20.727393
40
2
50
0
51
81.634113
0
ARC
8
0
10
161.3537276
20
-16
40
2
50
81.634113
51
90
0
ARC
8
0
10
140.6462724
20
-16
40
2
50
90
51
98.365887
0
LINE
8
0
10
91.55
20
-91.45
11
108.45
21
-91.45
0
LINE
8
0
10
108.45
20
-91.45
11
108.45
21
-74.55
0
LINE
8
0
10
108.45
20
-74.55
11
91.55
21
-74.55
0
LINE
8
0
10
91.55
20
-74.55
11
91.55
21
-91.45
0
LINE
8
0
10
91.55
20
-74.45
11
108.45
21
-74.45
0
LINE
8
0
10
108.45
20
-74.45
11
108.45
21
-57.55
0
LINE
8
0
10
108.45
20
-57.55
11
91.55
21
-57.55
0
LINE
8
0
10
91.55
20
-57.55
11
91.55
21
-74.45
0
LINE
8
0
10
91.55
20
-57.45
11
108.45
21
-57.45
0
LINE
8
0
10
108.45
20
-57.45
11
108.45
21
-40.55
0
LINE
8
0
10
108.45
20
-40.55
11
91.55
21
-40.55
0
LINE
8
0
10
91.55
20
-40.55
11
91.55
21
-57.45
0
LINE
8
0
10
91.55
20
-40.45
11
108.45
21
-40.45
0
LINE
8
0
10
108.45
20
-40.45
11
108.45
21
-23.55
0
LINE
8
0
10
108.45
20
-23.55
11
91.55
21
-23.55
0
LINE
8
0
10
91.55
20
-23.55
11
91.55
21
-40.45
0
LINE
8
0
10
108.55
20
-91.45
11
125.45
21
-91.45
0
LINE
8
0
10
125.45
20
-91.45
11
125.45
21
-74.55
0
LINE
8
0
10
125.45
20
-74.55
11
108.55
21
-74.55
0
LINE
8
0
10
108.55
20
-74.55
11
108.55
21
-91.45
0
LINE
8
0
10
108.55
20
-74.45
11
125.45
21
-74.45
0
LINE
8
0
10
125.45
20
-74.45
11
125.45
21
-57.55
0
LINE
8
0
10
125.45
20
-57.55
11
108.55
21
-57.55
0
LINE
8
0
10
108.55
20
-57.55
11
108.55
21
-74.45
0
LINE
8
0
10
108.55
20
-57.45
11
125.45
21
-57.45
0
LINE
8
0
10
125.45
20
-57.45
11
125.45
21
-40.55
0
LINE
8
0
10
125.45
20
-40.55
11
108.55
21
-40.55
0
LINE
8
0
10
108.55
20
-40.55
11
108.55
21
-57.45
0
LINE
8
0
10
108.55
20
-40.45
11
125.45
21
-40.45
0
LINE
8
0
10
125.45
20
-40.45
11
125.45
21
-23.55
0
LINE
8
0
10
125.45
20
-23.55
11
108.55
21
-23.55
0
LINE
8
0
10
108.55
20
-23.55
11
108.55
21
-40.45
0
LINE
8
0
10
125.55
20
-103.45
11
142.45
21
-103.45
0
LINE
8
0
10
142.45
20
-103.45
11
142.45
21
-86.55
0
LINE
8
0
10
142.45
20
-86.55
11
125.55
21
-86.55
0
LINE
8
0
10
125.55
20
-86.55
11
125.55
21
-103.45
0
LINE
8
0
10
125.55
20
-86.45
11
142.45
21
-86.45
0
LINE
8
0
10
142.45
20
-86.45
11
142.45
21
-69.55
0
LINE
8
0
10
142.45
20
-69.55
11
125.55
21
-69.55
0
LINE
8
0
10
125.55
20
-69.55
11
125.55
21
-86.45
0
LINE
8
0
10
125.55
20
-69.45
11
142.45
21
-69.45
0
LINE
8
0
10
142.45
20
-69.45
11
142.45
21
-52.55
0
LINE
8
0
10
142.45
20
-52.55
11
125.55
21
-52.55
0
LINE
8
0
10
125.55
20
-52.55
11
125.55
21
-69.45
0
LINE
8
0
10
125.55
20
-52.45
11
142.45
21
-52.45
0
LINE
8
0
10
142.45
20
-52.45
11
142.45
21
-35.55
0
LINE
8
0
10
142.45
20
-35.55
11
125.55
21
-35.55
0
LINE
8
0
10
125.55
20
-35.55
11
125.55
21
-52.45
0
LINE
8
0
10
125.55
20
-35.45
11
142.45
21
-35.45
0
LINE
8
0
10
142.45
20
-35.45
11
142.45
21
-18.55
0
LINE
8
0
10
142.45
20
-18.55
11
125.55
21
-18.55
0
LINE
8
0
10
125.55
20
-18.55
11
125.55
21
-35.45
0
LINE
8
0
10
142.55
20
-100.95
11
159.45
21
-100.95
0
LINE
8
0
10
159.45
20
-100.95
11
159.45
21
-84.05
0
LINE
8
0
10
159.45
20
-84.05
11
142.55
21
-84.05
0
LINE
8
0
10
142.55
20
-84.05
11
142.55
21
-100.95
0
LINE
8
0
10
142.55
20
-83.95
11
159.45
21
-83.95
0
LINE
8
0
10
159.45
20
-83.95
11
159.45
21
-67.05
0
LINE
8
0
10
159.45
20
-67.05
11
142.55
21
-67.05
0
LINE
8
0
10
142.55
20
-67.05
11
142.55
21
-83.95
0
LINE
8
0
10
142.55
20
-66.95
11
159.45
21
-66.95
0
LINE
8
0
10
159.45
20
-66.95
11
159.45
21
-50.05
0
LINE
8
0
10
159.45
20
-50.05
11
142.55
21
-50.05
0
LINE
8
0
10
142.55
20
-50.05
11
142.55
21
-66.95
0
LINE
8
0
10
142.55
20
-49.95
11
159.45
21
-49.95
0
LINE
8
0
10
159.45
20
-49.95
11
159.45
21
-33.05
0
LINE
8
0
10
159.45
20
-33.05
11
142.55
21
-33.05
0
LINE
8
0
10
142.55
20
-33.05
11
142.55
21
-49.95
0
LINE
8
0
10
142.55
20
-32.95
11
159.45
21
-32.95
0
LINE
8
0
10
159.45
20
-32.95
11
159.45
21
-16.05
0
LINE
8
0
10
159.45
20
-16.05
11
142.55
21
-16.05
0
LINE
8
0
10
142.55
20
-16.05
11
142.55
21
-32.95
0
LINE
8
0
10
159.55
20
-103.45
11
176.45
21
-103.45
0
LINE
8
0
10
176.45
20
-103.45
11
176.45
21
-86.55
0
LINE
8
0
10
176.45
20
-86.55
11
159.55
21
-86.55
0
LINE
8
0
10
159.55
20
-86.55
11
159.55
21
-103.45
0
LINE
8
0
10
159.55
20
-86.45
11
176.45
21
-86.45
0
LINE
8
0
10
176.45
20
-86.45
11
176.45
21
-69.55
0
LINE
8
0
10
176.45
20
-69.55
11
159.55
21
-69.55
0
LINE
8
0
10
159.55
20
-69.55
11
159.55
21
-86.45
0
LINE
8
0
10
159.55
20
-69.45
11
176.45
21
-69.45
0
LINE
8
0
10
176.45
20
-69.45
11
176.45
21
-52.55
0
LINE
8
0
10
176.45
20
-52.55
11
159.55
21
-52.55
0
LINE
8
0
10
159.55
20
-52.55
11
159.55
21
-69.45
0
LINE
8
0
10
159.55
20
-52.45
11
176.45
21
-52.45
0
LINE
8
0
10
176.45
20
-52.45
11
176.45
21
-35.55
0
LINE
8
0
10
176.45
20
-35.55
11
159.55
21
-35.55
0
LINE
8
0
10
159.55
20
-35.55
11
159.55
21
-52.45
0
LINE
8
0
10
159.55
20
-35.45
11
176.45
21
-35.45
0
LINE
8
0
10
176.45
20
-35.45
11
176.45
21
-18.55
0
LINE
8
0
10
176.45
20
-18.55
11
159.55
21
-18.55
0
LINE
8
0
10
159.55
20
-18.55
11
159.55
21
-35.45
0
LINE
8
0
10
176.55
20
-88.95
11
193.45
21
-88.95
0
LINE
8
0
10
193.45
20
-88.95
11
193.45
21
-72.05
0
LINE
8
0
10
193.45
20
-72.05
11
176.55
21
-72.05
0
LINE
8
0
10
176.55
20
-72.05
11
176.55
21
-88.95
0
LINE
8
0
10
176.55
20
-71.95
11
193.45
21
-71.95
0
LINE
8
0
10
193.45
20
-71.95
11
193.45
21
-55.05
0
LINE
8
0
10
193.45
20
-55.05
11
176.55
21
-55.05
0
LINE
8
0
10
176.55
20
-55.05
11
176.55
21
-71.95
0
LINE
8
0
10
176.55
20
-54.95
11
193.45
21
-54.95
0
LINE
8
0
10
193.45
20
-54.95
11
193.45
21
-38.05
0
LINE
8
0
10
193.45
20
-38.05
11
176.55
21
-38.05
0
LINE
8
0
10
176.55
20
-38.05
11
176.55
21
-54.95
0
LINE
8
0
10
176.55
20
-37.95
11
193.45
21
-37.95
0
LINE
8
0
10
193.45
20
-37.95
11
193.45
21
-21.05
0
LINE
8
0
10
193.45
20
-21.05
11
176.55
21
-21.05
0
LINE
8
0
10
176.55
20
-21.05
11
176.55
21
-37.95
0
LINE
8
0
10
176.6509058
20
-105.4750523
11
192.9750523
21
-109.8490942
0
LINE
8
0
10
192.9750523
20
-109.8490942
11
197.3490942
21
-93.5249477
0
LINE
8
0
10
197.3490942
20
-93.5249477
11
181.0249477
21
-89.1509058
0
LINE
8
0
10
181.0249477
20
-89.1509058
11
176.6509058
21
-105.4750523
0
LINE
8
0
10
193.4759005
20
-110.2248893
11
208.1117299
21
-118.6748893
0
LINE
8
0
10
208.1117299
20
-118.6748893
11
216.5617299
21
-104.0390599
0
LINE
8
0
10
216.5617299
20
-104.0390599
11
201.9259005
21
-95.5890599
0
LINE
8
0
10
201.9259005
20
-95.5890599
11
193.4759005
21
-110.2248893
0
ENDSEC
0
EOF