0
SECTION
2
HEADER
9
$INSUNITS
70
4
0
ENDSEC
0
SECTION
2
TABLES
0
TABLE
2
LTYPE
0
LTYPE
72
65
70
64
2
CONTINUOUS
3
______
73
0
40
0
0
ENDTAB
0
TABLE
2
LAYER
0
ENDTAB
0
ENDSEC
0
SECTION
2
ENTITIES
0
LINE
8
0
10
91.55
20
-91.45
11
108.45
21
-91.45
0
LINE
8
0
10
108.45
20
-91.45
11
108.45
21
-74.55
0
LINE
8
0
10
108.45
20
-74.55
11
91.55
21
-74.55
0
LINE
8
0
10
91.55
20
-74.55
11
91.55
21
-91.45
0
LINE
8
0
10
91.55
20
-74.45
11
108.45
21
-74.45
0
LINE
8
0
10
108.45
20
-74.45
11
108.45
21
-57.55
0
LINE
8
0
10
108.45
20
-57.55
11
91.55
21
-57.55
0
LINE
8
0
10
91.55
20
-57.55
11
91.55
21
-74.45
0
LINE
8
0
10
91.55
20
-57.45
11
108.45
21
-57.45
0
LINE
8
0
10
108.45
20
-57.45
11
108.45
21
-40.55
0
LINE
8
0
10
108.45
20
-40.55
11
91.55
21
-40.55
0
LINE
8
0
10
91.55
20
-40.55
11
91.55
21
-57.45
0
LINE
8
0
10
91.55
20
-40.45
11
108.45
21
-40.45
0
LINE
8
0
10
108.45
20
-40.45
11
108.45
21
-23.55
0
LINE
8
0
10
108.45
20
-23.55
11
91.55
21
-23.55
0
LINE
8
0
10
91.55
20
-23.55
11
91.55
21
-40.45
0
LINE
8
0
10
108.55
20
-91.45
11
125.45
21
-91.45
0
LINE
8
0
10
125.45
20
-91.45
11
125.45
21
-74.55
0
LINE
8
0
10
125.45
20
-74.55
11
108.55
21
-74.55
0
LINE
8
0
10
108.55
20
-74.55
11
108.55
21
-91.45
0
LINE
8
0
10
108.55
20
-74.45
11
125.45
21
-74.45
0
LINE
8
0
10
125.45
20
-74.45
11
125.45
21
-57.55
0
LINE
8
0
10
125.45
20
-57.55
11
108.55
21
-57.55
0
LINE
8
0
10
108.55
20
-57.55
11
108.55
21
-74.45
0
LINE
8
0
10
108.55
20
-57.45
11
125.45
21
-57.45
0
LINE
8
0
10
125.45
20
-57.45
11
125.45
21
-40.55
0
LINE
8
0
10
125.45
20
-40.55
11
108.55
21
-40.55
0
LINE
8
0
10
108.55
20
-40.55
11
108.55
21
-57.45
0
LINE
8
0
10
108.55
20
-40.45
11
125.45
21
-40.45
0
LINE
8
0
10
125.45
20
-40.45
11
125.45
21
-23.55
0
LINE
8
0
10
125.45
20
-23.55
11
108.55
21
-23.55
0
LINE
8
0
10
108.55
20
-23.55
11
108.55
21
-40.45
0
LINE
8
0
10
125.55
20
-103.45
11
142.45
21
-103.45
0
LINE
8
0
10
142.45
20
-103.45
11
142.45
21
-86.55
0
LINE
8
0
10
142.45
20
-86.55
11
125.55
21
-86.55
0
LINE
8
0
10
125.55
20
-86.55
11
125.55
21
-103.45
0
LINE
8
0
10
125.55
20
-86.45
11
142.45
21
-86.45
0
LINE
8
0
10
142.45
20
-86.45
11
142.45
21
-69.55
0
LINE
8
0
10
142.45
20
-69.55
11
125.55
21
-69.55
0
LINE
8
0
10
125.55
20
-69.55
11
125.55
21
-86.45
0
LINE
8
0
10
125.55
20
-69.45
11
142.45
21
-69.45
0
LINE
8
0
10
142.45
20
-69.45
11
142.45
21
-52.55
0
LINE
8
0
10
142.45
20
-52.55
11
125.55
21
-52.55
0
LINE
8
0
10
125.55
20
-52.55
11
125.55
21
-69.45
0
LINE
8
0
10
125.55
20
-52.45
11
142.45
21
-52.45
0
LINE
8
0
10
142.45
20
-52.45
11
142.45
21
-35.55
0
LINE
8
0
10
142.45
20
-35.55
11
125.55
21
-35.55
0
LINE
8
0
10
125.55
20
-35.55
11
125.55
21
-52.45
0
LINE
8
0
10
125.55
20
-35.45
11
142.45
21
-35.45
0
LINE
8
0
10
142.45
20
-35.45
11
142.45
21
-18.55
0
LINE
8
0
10
142.45
20
-18.55
11
125.55
21
-18.55
0
LINE
8
0
10
125.55
20
-18.55
11
125.55
21
-35.45
0
LINE
8
0
10
142.55
20
-100.95
11
159.45
21
-100.95
0
LINE
8
0
10
159.45
20
-100.95
11
159.45
21
-84.05
0
LINE
8
0
10
159.45
20
-84.05
11
142.55
21
-84.05
0
LINE
8
0
10
142.55
20
-84.05
11
142.55
21
-100.95
0
LINE
8
0
10
142.55
20
-83.95
11
159.45
21
-83.95
0
LINE
8
0
10
159.45
20
-83.95
11
159.45
21
-67.05
0
LINE
8
0
10
159.45
20
-67.05
11
142.55
21
-67.05
0
LINE
8
0
10
142.55
20
-67.05
11
142.55
21
-83.95
0
LINE
8
0
10
142.55
20
-66.95
11
159.45
21
-66.95
0
LINE
8
0
10
159.45
20
-66.95
11
159.45
21
-50.05
0
LINE
8
0
10
159.45
20
-50.05
11
142.55
21
-50.05
0
LINE
8
0
10
142.55
20
-50.05
11
142.55
21
-66.95
0
LINE
8
0
10
142.55
20
-49.95
11
159.45
21
-49.95
0
LINE
8
0
10
159.45
20
-49.95
11
159.45
21
-33.05
0
LINE
8
0
10
159.45
20
-33.05
11
142.55
21
-33.05
0
LINE
8
0
10
142.55
20
-33.05
11
142.55
21
-49.95
0
LINE
8
0
10
142.55
20
-32.95
11
159.45
21
-32.95
0
LINE
8
0
10
159.45
20
-32.95
11
159.45
21
-16.05
0
LINE
8
0
10
159.45
20
-16.05
11
142.55
21
-16.05
0
LINE
8
0
10
142.55
20
-16.05
11
142.55
21
-32.95
0
LINE
8
0
10
159.55
20
-103.45
11
176.45
21
-103.45
0
LINE
8
0
10
176.45
20
-103.45
11
176.45
21
-86.55
0
LINE
8
0
10
176.45
20
-86.55
11
159.55
21
-86.55
0
LINE
8
0
10
159.55
20
-86.55
11
159.55
21
-103.45
0
LINE
8
0
10
159.55
20
-86.45
11
176.45
21
-86.45
0
LINE
8
0
10
176.45
20
-86.45
11
176.45
21
-69.55
0
LINE
8
0
10
176.45
20
-69.55
11
159.55
21
-69.55
0
LINE
8
0
10
159.55
20
-69.55
11
159.55
21
-86.45
0
LINE
8
0
10
159.55
20
-69.45
11
176.45
21
-69.45
0
LINE
8
0
10
176.45
20
-69.45
11
176.45
21
-52.55
0
LINE
8
0
10
176.45
20
-52.55
11
159.55
21
-52.55
0
LINE
8
0
10
159.55
20
-52.55
11
159.55
21
-69.45
0
LINE
8
0
10
159.55
20
-52.45
11
176.45
21
-52.45
0
LINE
8
0
10
176.45
20
-52.45
11
176.45
21
-35.55
0
LINE
8
0
10
176.45
20
-35.55
11
159.55
21
-35.55
0
LINE
8
0
10
159.55
20
-35.55
11
159.55
21
-52.45
0
LINE
8
0
10
159.55
20
-35.45
11
176.45
21
-35.45
0
LINE
8
0
10
176.45
20
-35.45
11
176.45
21
-18.55
0
LINE
8
0
10
176.45
20
-18.55
11
159.55
21
-18.55
0
LINE
8
0
10
159.55
20
-18.55
11
159.55
21
-35.45
0
LINE
8
0
10
176.55
20
-88.95
11
193.45
21
-88.95
0
LINE
8
0
10
193.45
20
-88.95
11
193.45
21
-72.05
0
LINE
8
0
10
193.45
20
-72.05
11
176.55
21
-72.05
0
LINE
8
0
10
176.55
20
-72.05
11
176.55
21
-88.95
0
LINE
8
0
10
176.55
20
-71.95
11
193.45
21
-71.95
0
LINE
8
0
10
193.45
20
-71.95
11
193.45
21
-55.05
0
LINE
8
0
10
193.45
20
-55.05
11
176.55
21
-55.05
0
LINE
8
0
10
176.55
20
-55.05
11
176.55
21
-71.95
0
LINE
8
0
10
176.55
20
-54.95
11
193.45
21
-54.95
0
LINE
8
0
10
193.45
20
-54.95
11
193.45
21
-38.05
0
LINE
8
0
10
193.45
20
-38.05
11
176.55
21
-38.05
0
LINE
8
0
10
176.55
20
-38.05
11
176.55
21
-54.95
0
LINE
8
0
10
176.55
20
-37.95
11
193.45
21
-37.95
0
LINE
8
0
10
193.45
20
-37.95
11
193.45
21
-21.05
0
LINE
8
0
10
193.45
20
-21.05
11
176.55
21
-21.05
0
LINE
8
0
10
176.55
20
-21.05
11
176.55
21
-37.95
0
LINE
8
0
10
176.6509058
20
-105.4750523
11
192.9750523
21
-109.8490942
0
LINE
8
0
10
192.9750523
20
-109.8490942
11
197.3490942
21
-93.5249477
0
LINE
8
0
10
197.3490942
20
-93.5249477
11
181.0249477
21
-89.1509058
0
LINE
8
0
10
181.0249477
20
-89.1509058
11
176.6509058
21
-105.4750523
0
LINE
8
0
10
193.4759005
20
-110.2248893
11
208.1117299
21
-118.6748893
0
LINE
8
0
10
208.1117299
20
-118.6748893
11
216.5617299
21
-104.0390599
0
LINE
8
0
10
216.5617299
20
-104.0390599
11
201.9259005
21
-95.5890599
0
LINE
8
0
10
201.9259005
20
-95.5890599
11
193.4759005
21
-110.2248893
0
ENDSEC
0
EOF