0
SECTION
2
HEADER
9
$INSUNITS
70
4
0
ENDSEC
0
SECTION
2
TABLES
0
TABLE
2
LTYPE
0
LTYPE
72
65
70
64
2
CONTINUOUS
3
______
73
0
40
0
0
ENDTAB
0
TABLE
2
LAYER
0
ENDTAB
0
ENDSEC
0
SECTION
2
ENTITIES
0
LINE
8
0
10
91.209012
20
-21.2486747
11
140.3552844
21
-14.0212817
0
LINE
8
0
10
89.5
20
-23.227393
11
89.5
21
-92.0849698
0
LINE
8
0
10
90.8343598
20
-93.9709505
11
123.2041812
21
-105.3955934
0
LINE
8
0
10
123.8135793
20
-105.5088217
11
173.7673865
21
-106.9141337
0
LINE
8
0
10
174.4841377
20
-107.0687612
11
207.2376749
21
-120.7945145
0
LINE
8
0
10
209.7427191
20
-119.949933
11
218.3128582
21
-105.1060166
0
LINE
8
0
10
217.4964922
20
-102.3279499
11
196.5843152
21
-91.5584103
0
LINE
8
0
10
195.5
20
-89.7803436
11
195.5
21
-20.727393
0
LINE
8
0
10
193.790988
20
-18.7486747
11
161.6447156
21
-14.0212817
0
LINE
8
0
10
161.3537276
20
-14
11
140.6462724
21
-14
0
ARC
8
0
10
91.5
20
-23.227393
40
2
50
98.365887
51
180
0
ARC
8
0
10
91.5
20
-92.0849698
40
2
50
180
51
250.5599655
0
ARC
8
0
10
123.8698215
20
-103.5096127
40
2
50
250.5599655
51
268.3885672
0
ARC
8
0
10
173.7111443
20
-108.9133427
40
2
50
67.2633115
51
88.3885672
0
ARC
8
0
10
208.0106683
20
-118.949933
40
2
50
247.2633115
51
329.9999999
0
ARC
8
0
10
216.5808074
20
-104.1060166
40
2
50
329.9999999
51
62.7520318
0
ARC
8
0
10
197.5
20
-89.7803436
40
2
50
180
51
242.7520318
0
ARC
8
0
10
193.5
20
-20.727393
40
2
50
0
51
81.634113
0
ARC
8
0
10
161.3537276
20
-16
40
2
50
81.634113
51
90
0
ARC
8
0
10
140.6462724
20
-16
40
2
50
90
51
98.365887
0
LINE
8
0
10
93.1
20
-89.9
11
106.9
21
-89.9
0
LINE
8
0
10
106.9
20
-89.9
11
106.9
21
-76.1
0
LINE
8
0
10
106.9
20
-76.1
11
93.1
21
-76.1
0
LINE
8
0
10
93.1
20
-76.1
11
93.1
21
-89.9
0
LINE
8
0
10
93.1
20
-72.9
11
106.9
21
-72.9
0
LINE
8
0
10
106.9
20
-72.9
11
106.9
21
-59.1
0
LINE
8
0
10
106.9
20
-59.1
11
93.1
21
-59.1
0
LINE
8
0
10
93.1
20
-59.1
11
93.1
21
-72.9
0
LINE
8
0
10
93.1
20
-55.9
11
106.9
21
-55.9
0
LINE
8
0
10
106.9
20
-55.9
11
106.9
21
-42.1
0
LINE
8
0
10
106.9
20
-42.1
11
93.1
21
-42.1
0
LINE
8
0
10
93.1
20
-42.1
11
93.1
21
-55.9
0
LINE
8
0
10
93.1
20
-38.9
11
106.9
21
-38.9
0
LINE
8
0
10
106.9
20
-38.9
11
106.9
21
-25.1
0
LINE
8
0
10
106.9
20
-25.1
11
93.1
21
-25.1
0
LINE
8
0
10
93.1
20
-25.1
11
93.1
21
-38.9
0
LINE
8
0
10
110.1
20
-89.9
11
123.9
21
-89.9
0
LINE
8
0
10
123.9
20
-89.9
11
123.9
21
-76.1
0
LINE
8
0
10
123.9
20
-76.1
11
110.1
21
-76.1
0
LINE
8
0
10
110.1
20
-76.1
11
110.1
21
-89.9
0
LINE
8
0
10
110.1
20
-72.9
11
123.9
21
-72.9
0
LINE
8
0
10
123.9
20
-72.9
11
123.9
21
-59.1
0
LINE
8
0
10
123.9
20
-59.1
11
110.1
21
-59.1
0
LINE
8
0
10
110.1
20
-59.1
11
110.1
21
-72.9
0
LINE
8
0
10
110.1
20
-55.9
11
123.9
21
-55.9
0
LINE
8
0
10
123.9
20
-55.9
11
123.9
21
-42.1
0
LINE
8
0
10
123.9
20
-42.1
11
110.1
21
-42.1
0
LINE
8
0
10
110.1
20
-42.1
11
110.1
21
-55.9
0
LINE
8
0
10
110.1
20
-38.9
11
123.9
21
-38.9
0
LINE
8
0
10
123.9
20
-38.9
11
123.9
21
-25.1
0
LINE
8
0
10
123.9
20
-25.1
11
110.1
21
-25.1
0
LINE
8
0
10
110.1
20
-25.1
11
110.1
21
-38.9
0
LINE
8
0
10
127.1
20
-101.9
11
140.9
21
-101.9
0
LINE
8
0
10
140.9
20
-101.9
11
140.9
21
-88.1
0
LINE
8
0
10
140.9
20
-88.1
11
127.1
21
-88.1
0
LINE
8
0
10
127.1
20
-88.1
11
127.1
21
-101.9
0
LINE
8
0
10
127.1
20
-84.9
11
140.9
21
-84.9
0
LINE
8
0
10
140.9
20
-84.9
11
140.9
21
-71.1
0
LINE
8
0
10
140.9
20
-71.1
11
127.1
21
-71.1
0
LINE
8
0
10
127.1
20
-71.1
11
127.1
21
-84.9
0
LINE
8
0
10
127.1
20
-67.9
11
140.9
21
-67.9
0
LINE
8
0
10
140.9
20
-67.9
11
140.9
21
-54.1
0
LINE
8
0
10
140.9
20
-54.1
11
127.1
21
-54.1
0
LINE
8
0
10
127.1
20
-54.1
11
127.1
21
-67.9
0
LINE
8
0
10
127.1
20
-50.9
11
140.9
21
-50.9
0
LINE
8
0
10
140.9
20
-50.9
11
140.9
21
-37.1
0
LINE
8
0
10
140.9
20
-37.1
11
127.1
21
-37.1
0
LINE
8
0
10
127.1
20
-37.1
11
127.1
21
-50.9
0
LINE
8
0
10
127.1
20
-33.9
11
140.9
21
-33.9
0
LINE
8
0
10
140.9
20
-33.9
11
140.9
21
-20.1
0
LINE
8
0
10
140.9
20
-20.1
11
127.1
21
-20.1
0
LINE
8
0
10
127.1
20
-20.1
11
127.1
21
-33.9
0
LINE
8
0
10
144.1
20
-99.4
11
157.9
21
-99.4
0
LINE
8
0
10
157.9
20
-99.4
11
157.9
21
-85.6
0
LINE
8
0
10
157.9
20
-85.6
11
144.1
21
-85.6
0
LINE
8
0
10
144.1
20
-85.6
11
144.1
21
-99.4
0
LINE
8
0
10
144.1
20
-82.4
11
157.9
21
-82.4
0
LINE
8
0
10
157.9
20
-82.4
11
157.9
21
-68.6
0
LINE
8
0
10
157.9
20
-68.6
11
144.1
21
-68.6
0
LINE
8
0
10
144.1
20
-68.6
11
144.1
21
-82.4
0
LINE
8
0
10
144.1
20
-65.4
11
157.9
21
-65.4
0
LINE
8
0
10
157.9
20
-65.4
11
157.9
21
-51.6
0
LINE
8
0
10
157.9
20
-51.6
11
144.1
21
-51.6
0
LINE
8
0
10
144.1
20
-51.6
11
144.1
21
-65.4
0
LINE
8
0
10
144.1
20
-48.4
11
157.9
21
-48.4
0
LINE
8
0
10
157.9
20
-48.4
11
157.9
21
-34.6
0
LINE
8
0
10
157.9
20
-34.6
11
144.1
21
-34.6
0
LINE
8
0
10
144.1
20
-34.6
11
144.1
21
-48.4
0
LINE
8
0
10
144.1
20
-31.4
11
157.9
21
-31.4
0
LINE
8
0
10
157.9
20
-31.4
11
157.9
21
-17.6
0
LINE
8
0
10
157.9
20
-17.6
11
144.1
21
-17.6
0
LINE
8
0
10
144.1
20
-17.6
11
144.1
21
-31.4
0
LINE
8
0
10
161.1
20
-101.9
11
174.9
21
-101.9
0
LINE
8
0
10
174.9
20
-101.9
11
174.9
21
-88.1
0
LINE
8
0
10
174.9
20
-88.1
11
161.1
21
-88.1
0
LINE
8
0
10
161.1
20
-88.1
11
161.1
21
-101.9
0
LINE
8
0
10
161.1
20
-84.9
11
174.9
21
-84.9
0
LINE
8
0
10
174.9
20
-84.9
11
174.9
21
-71.1
0
LINE
8
0
10
174.9
20
-71.1
11
161.1
21
-71.1
0
LINE
8
0
10
161.1
20
-71.1
11
161.1
21
-84.9
0
LINE
8
0
10
161.1
20
-67.9
11
174.9
21
-67.9
0
LINE
8
0
10
174.9
20
-67.9
11
174.9
21
-54.1
0
LINE
8
0
10
174.9
20
-54.1
11
161.1
21
-54.1
0
LINE
8
0
10
161.1
20
-54.1
11
161.1
21
-67.9
0
LINE
8
0
10
161.1
20
-50.9
11
174.9
21
-50.9
0
LINE
8
0
10
174.9
20
-50.9
11
174.9
21
-37.1
0
LINE
8
0
10
174.9
20
-37.1
11
161.1
21
-37.1
0
LINE
8
0
10
161.1
20
-37.1
11
161.1
21
-50.9
0
LINE
8
0
10
161.1
20
-33.9
11
174.9
21
-33.9
0
LINE
8
0
10
174.9
20
-33.9
11
174.9
21
-20.1
0
LINE
8
0
10
174.9
20
-20.1
11
161.1
21
-20.1
0
LINE
8
0
10
161.1
20
-20.1
11
161.1
21
-33.9
0
LINE
8
0
10
178.1
20
-87.4
11
191.9
21
-87.4
0
LINE
8
0
10
191.9
20
-87.4
11
191.9
21
-73.6
0
LINE
8
0
10
191.9
20
-73.6
11
178.1
21
-73.6
0
LINE
8
0
10
178.1
20
-73.6
11
178.1
21
-87.4
0
LINE
8
0
10
178.1
20
-70.4
11
191.9
21
-70.4
0
LINE
8
0
10
191.9
20
-70.4
11
191.9
21
-56.6
0
LINE
8
0
10
191.9
20
-56.6
11
178.1
21
-56.6
0
LINE
8
0
10
178.1
20
-56.6
11
178.1
21
-70.4
0
LINE
8
0
10
178.1
20
-53.4
11
191.9
21
-53.4
0
LINE
8
0
10
191.9
20
-53.4
11
191.9
21
-39.6
0
LINE
8
0
10
191.9
20
-39.6
11
178.1
21
-39.6
0
LINE
8
0
10
178.1
20
-39.6
11
178.1
21
-53.4
0
LINE
8
0
10
178.1
20
-36.4
11
191.9
21
-36.4
0
LINE
8
0
10
191.9
20
-36.4
11
191.9
21
-22.6
0
LINE
8
0
10
191.9
20
-22.6
11
178.1
21
-22.6
0
LINE
8
0
10
178.1
20
-22.6
11
178.1
21
-36.4
0
LINE
8
0
10
178.5492604
20
-104.3790368
11
191.8790368
21
-107.9507396
0
LINE
8
0
10
191.8790368
20
-107.9507396
11
195.4507396
21
-94.6209632
0
LINE
8
0
10
195.4507396
20
-94.6209632
11
182.1209632
21
-91.0492604
0
LINE
8
0
10
182.1209632
20
-91.0492604
11
178.5492604
21
-104.3790368
0
LINE
8
0
10
195.5932399
20
-109.6575499
11
207.5443905
21
-116.5575499
0
LINE
8
0
10
207.5443905
20
-116.5575499
11
214.4443905
21
-104.6063993
0
LINE
8
0
10
214.4443905
20
-104.6063993
11
202.4932399
21
-97.7063993
0
LINE
8
0
10
202.4932399
20
-97.7063993
11
195.5932399
21
-109.6575499
0
ENDSEC
0
EOF