0
SECTION
2
HEADER
9
$INSUNITS
70
4
0
ENDSEC
0
SECTION
2
TABLES
0
TABLE
2
LTYPE
0
LTYPE
72
65
70
64
2
CONTINUOUS
3
______
73
0
40
0
0
ENDTAB
0
TABLE
2
LAYER
0
ENDTAB
0
ENDSEC
0
SECTION
2
ENTITIES
0
LINE
8
0
10
93.1
20
-89.9
11
106.9
21
-89.9
0
LINE
8
0
10
106.9
20
-89.9
11
106.9
21
-76.1
0
LINE
8
0
10
106.9
20
-76.1
11
93.1
21
-76.1
0
LINE
8
0
10
93.1
20
-76.1
11
93.1
21
-89.9
0
LINE
8
0
10
93.1
20
-72.9
11
106.9
21
-72.9
0
LINE
8
0
10
106.9
20
-72.9
11
106.9
21
-59.1
0
LINE
8
0
10
106.9
20
-59.1
11
93.1
21
-59.1
0
LINE
8
0
10
93.1
20
-59.1
11
93.1
21
-72.9
0
LINE
8
0
10
93.1
20
-55.9
11
106.9
21
-55.9
0
LINE
8
0
10
106.9
20
-55.9
11
106.9
21
-42.1
0
LINE
8
0
10
106.9
20
-42.1
11
93.1
21
-42.1
0
LINE
8
0
10
93.1
20
-42.1
11
93.1
21
-55.9
0
LINE
8
0
10
93.1
20
-38.9
11
106.9
21
-38.9
0
LINE
8
0
10
106.9
20
-38.9
11
106.9
21
-25.1
0
LINE
8
0
10
106.9
20
-25.1
11
93.1
21
-25.1
0
LINE
8
0
10
93.1
20
-25.1
11
93.1
21
-38.9
0
LINE
8
0
10
110.1
20
-89.9
11
123.9
21
-89.9
0
LINE
8
0
10
123.9
20
-89.9
11
123.9
21
-76.1
0
LINE
8
0
10
123.9
20
-76.1
11
110.1
21
-76.1
0
LINE
8
0
10
110.1
20
-76.1
11
110.1
21
-89.9
0
LINE
8
0
10
110.1
20
-72.9
11
123.9
21
-72.9
0
LINE
8
0
10
123.9
20
-72.9
11
123.9
21
-59.1
0
LINE
8
0
10
123.9
20
-59.1
11
110.1
21
-59.1
0
LINE
8
0
10
110.1
20
-59.1
11
110.1
21
-72.9
0
LINE
8
0
10
110.1
20
-55.9
11
123.9
21
-55.9
0
LINE
8
0
10
123.9
20
-55.9
11
123.9
21
-42.1
0
LINE
8
0
10
123.9
20
-42.1
11
110.1
21
-42.1
0
LINE
8
0
10
110.1
20
-42.1
11
110.1
21
-55.9
0
LINE
8
0
10
110.1
20
-38.9
11
123.9
21
-38.9
0
LINE
8
0
10
123.9
20
-38.9
11
123.9
21
-25.1
0
LINE
8
0
10
123.9
20
-25.1
11
110.1
21
-25.1
0
LINE
8
0
10
110.1
20
-25.1
11
110.1
21
-38.9
0
LINE
8
0
10
127.1
20
-101.9
11
140.9
21
-101.9
0
LINE
8
0
10
140.9
20
-101.9
11
140.9
21
-88.1
0
LINE
8
0
10
140.9
20
-88.1
11
127.1
21
-88.1
0
LINE
8
0
10
127.1
20
-88.1
11
127.1
21
-101.9
0
LINE
8
0
10
127.1
20
-84.9
11
140.9
21
-84.9
0
LINE
8
0
10
140.9
20
-84.9
11
140.9
21
-71.1
0
LINE
8
0
10
140.9
20
-71.1
11
127.1
21
-71.1
0
LINE
8
0
10
127.1
20
-71.1
11
127.1
21
-84.9
0
LINE
8
0
10
127.1
20
-67.9
11
140.9
21
-67.9
0
LINE
8
0
10
140.9
20
-67.9
11
140.9
21
-54.1
0
LINE
8
0
10
140.9
20
-54.1
11
127.1
21
-54.1
0
LINE
8
0
10
127.1
20
-54.1
11
127.1
21
-67.9
0
LINE
8
0
10
127.1
20
-50.9
11
140.9
21
-50.9
0
LINE
8
0
10
140.9
20
-50.9
11
140.9
21
-37.1
0
LINE
8
0
10
140.9
20
-37.1
11
127.1
21
-37.1
0
LINE
8
0
10
127.1
20
-37.1
11
127.1
21
-50.9
0
LINE
8
0
10
127.1
20
-33.9
11
140.9
21
-33.9
0
LINE
8
0
10
140.9
20
-33.9
11
140.9
21
-20.1
0
LINE
8
0
10
140.9
20
-20.1
11
127.1
21
-20.1
0
LINE
8
0
10
127.1
20
-20.1
11
127.1
21
-33.9
0
LINE
8
0
10
144.1
20
-99.4
11
157.9
21
-99.4
0
LINE
8
0
10
157.9
20
-99.4
11
157.9
21
-85.6
0
LINE
8
0
10
157.9
20
-85.6
11
144.1
21
-85.6
0
LINE
8
0
10
144.1
20
-85.6
11
144.1
21
-99.4
0
LINE
8
0
10
144.1
20
-82.4
11
157.9
21
-82.4
0
LINE
8
0
10
157.9
20
-82.4
11
157.9
21
-68.6
0
LINE
8
0
10
157.9
20
-68.6
11
144.1
21
-68.6
0
LINE
8
0
10
144.1
20
-68.6
11
144.1
21
-82.4
0
LINE
8
0
10
144.1
20
-65.4
11
157.9
21
-65.4
0
LINE
8
0
10
157.9
20
-65.4
11
157.9
21
-51.6
0
LINE
8
0
10
157.9
20
-51.6
11
144.1
21
-51.6
0
LINE
8
0
10
144.1
20
-51.6
11
144.1
21
-65.4
0
LINE
8
0
10
144.1
20
-48.4
11
157.9
21
-48.4
0
LINE
8
0
10
157.9
20
-48.4
11
157.9
21
-34.6
0
LINE
8
0
10
157.9
20
-34.6
11
144.1
21
-34.6
0
LINE
8
0
10
144.1
20
-34.6
11
144.1
21
-48.4
0
LINE
8
0
10
144.1
20
-31.4
11
157.9
21
-31.4
0
LINE
8
0
10
157.9
20
-31.4
11
157.9
21
-17.6
0
LINE
8
0
10
157.9
20
-17.6
11
144.1
21
-17.6
0
LINE
8
0
10
144.1
20
-17.6
11
144.1
21
-31.4
0
LINE
8
0
10
161.1
20
-101.9
11
174.9
21
-101.9
0
LINE
8
0
10
174.9
20
-101.9
11
174.9
21
-88.1
0
LINE
8
0
10
174.9
20
-88.1
11
161.1
21
-88.1
0
LINE
8
0
10
161.1
20
-88.1
11
161.1
21
-101.9
0
LINE
8
0
10
161.1
20
-84.9
11
174.9
21
-84.9
0
LINE
8
0
10
174.9
20
-84.9
11
174.9
21
-71.1
0
LINE
8
0
10
174.9
20
-71.1
11
161.1
21
-71.1
0
LINE
8
0
10
161.1
20
-71.1
11
161.1
21
-84.9
0
LINE
8
0
10
161.1
20
-67.9
11
174.9
21
-67.9
0
LINE
8
0
10
174.9
20
-67.9
11
174.9
21
-54.1
0
LINE
8
0
10
174.9
20
-54.1
11
161.1
21
-54.1
0
LINE
8
0
10
161.1
20
-54.1
11
161.1
21
-67.9
0
LINE
8
0
10
161.1
20
-50.9
11
174.9
21
-50.9
0
LINE
8
0
10
174.9
20
-50.9
11
174.9
21
-37.1
0
LINE
8
0
10
174.9
20
-37.1
11
161.1
21
-37.1
0
LINE
8
0
10
161.1
20
-37.1
11
161.1
21
-50.9
0
LINE
8
0
10
161.1
20
-33.9
11
174.9
21
-33.9
0
LINE
8
0
10
174.9
20
-33.9
11
174.9
21
-20.1
0
LINE
8
0
10
174.9
20
-20.1
11
161.1
21
-20.1
0
LINE
8
0
10
161.1
20
-20.1
11
161.1
21
-33.9
0
LINE
8
0
10
178.1
20
-87.4
11
191.9
21
-87.4
0
LINE
8
0
10
191.9
20
-87.4
11
191.9
21
-73.6
0
LINE
8
0
10
191.9
20
-73.6
11
178.1
21
-73.6
0
LINE
8
0
10
178.1
20
-73.6
11
178.1
21
-87.4
0
LINE
8
0
10
178.1
20
-70.4
11
191.9
21
-70.4
0
LINE
8
0
10
191.9
20
-70.4
11
191.9
21
-56.6
0
LINE
8
0
10
191.9
20
-56.6
11
178.1
21
-56.6
0
LINE
8
0
10
178.1
20
-56.6
11
178.1
21
-70.4
0
LINE
8
0
10
178.1
20
-53.4
11
191.9
21
-53.4
0
LINE
8
0
10
191.9
20
-53.4
11
191.9
21
-39.6
0
LINE
8
0
10
191.9
20
-39.6
11
178.1
21
-39.6
0
LINE
8
0
10
178.1
20
-39.6
11
178.1
21
-53.4
0
LINE
8
0
10
178.1
20
-36.4
11
191.9
21
-36.4
0
LINE
8
0
10
191.9
20
-36.4
11
191.9
21
-22.6
0
LINE
8
0
10
191.9
20
-22.6
11
178.1
21
-22.6
0
LINE
8
0
10
178.1
20
-22.6
11
178.1
21
-36.4
0
LINE
8
0
10
178.5492604
20
-104.3790368
11
191.8790368
21
-107.9507396
0
LINE
8
0
10
191.8790368
20
-107.9507396
11
195.4507396
21
-94.6209632
0
LINE
8
0
10
195.4507396
20
-94.6209632
11
182.1209632
21
-91.0492604
0
LINE
8
0
10
182.1209632
20
-91.0492604
11
178.5492604
21
-104.3790368
0
LINE
8
0
10
195.5932399
20
-109.6575499
11
207.5443905
21
-116.5575499
0
LINE
8
0
10
207.5443905
20
-116.5575499
11
214.4443905
21
-104.6063993
0
LINE
8
0
10
214.4443905
20
-104.6063993
11
202.4932399
21
-97.7063993
0
LINE
8
0
10
202.4932399
20
-97.7063993
11
195.5932399
21
-109.6575499
0
ENDSEC
0
EOF